<svg xmlns="http://www.w3.org/2000/svg" xmlns:xlink="http://www.w3.org/1999/xlink" version="1.1" class="marks" width="470" height="302" viewBox="0 0 470 302"><rect width="470" height="302" fill="white"/><g fill="none" stroke-miterlimit="10" transform="translate(64,25)"><g class="mark-group role-frame root" role="graphics-object" aria-roledescription="group mark container"><g transform="translate(0,0)"><path class="background" aria-hidden="true" d="M0,0h0v0h0Z"/><g><g class="mark-group role-row-header row_header" role="graphics-object" aria-roledescription="group mark container"><g transform="translate(0,0)"><path class="background" aria-hidden="true" d="M0,0h0v20h0Z"/><g><g class="mark-group role-title"><g transform="translate(-45.576171875,10)"><path class="background" aria-hidden="true" d="M0,0h0v0h0Z" pointer-events="none"/><g><g class="mark-text role-title-text" role="graphics-symbol" aria-roledescription="title" aria-label="Title text 'January'" pointer-events="none"><text text-anchor="start" transform="translate(0,3)" font-family="sans-serif" font-size="10px" fill="#000" opacity="1">January</text></g></g><path class="foreground" aria-hidden="true" d="" pointer-events="none" display="none"/></g></g></g><path class="foreground" aria-hidden="true" d="" display="none"/></g><g transform="translate(0,20)"><path class="background" aria-hidden="true" d="M0,0h0v20h0Z"/><g><g class="mark-group role-title"><g transform="translate(-50.0146484375,10)"><path class="background" aria-hidden="true" d="M0,0h0v0h0Z" pointer-events="none"/><g><g class="mark-text role-title-text" role="graphics-symbol" aria-roledescription="title" aria-label="Title text 'February'" pointer-events="none"><text text-anchor="start" transform="translate(0,3)" font-family="sans-serif" font-size="10px" fill="#000" opacity="1">February</text></g></g><path class="foreground" aria-hidden="true" d="" pointer-events="none" display="none"/></g></g></g><path class="foreground" aria-hidden="true" d="" display="none"/></g><g transform="translate(0,40)"><path class="background" aria-hidden="true" d="M0,0h0v20h0Z"/><g><g class="mark-group role-title"><g transform="translate(-37.783203125,10)"><path class="background" aria-hidden="true" d="M0,0h0v0h0Z" pointer-events="none"/><g><g class="mark-text role-title-text" role="graphics-symbol" aria-roledescription="title" aria-label="Title text 'March'" pointer-events="none"><text text-anchor="start" transform="translate(0,3)" font-family="sans-serif" font-size="10px" fill="#000" opacity="1">March</text></g></g><path class="foreground" aria-hidden="true" d="" pointer-events="none" display="none"/></g></g></g><path class="foreground" aria-hidden="true" d="" display="none"/></g><g transform="translate(0,60)"><path class="background" aria-hidden="true" d="M0,0h0v20h0Z"/><g><g class="mark-group role-title"><g transform="translate(-30.0048828125,10)"><path class="background" aria-hidden="true" d="M0,0h0v0h0Z" pointer-events="none"/><g><g class="mark-text role-title-text" role="graphics-symbol" aria-roledescription="title" aria-label="Title text 'April'" pointer-events="none"><text text-anchor="start" transform="translate(0,3)" font-family="sans-serif" font-size="10px" fill="#000" opacity="1">April</text></g></g><path class="foreground" aria-hidden="true" d="" pointer-events="none" display="none"/></g></g></g><path class="foreground" aria-hidden="true" d="" display="none"/></g><g transform="translate(0,80)"><path class="background" aria-hidden="true" d="M0,0h0v20h0Z"/><g><g class="mark-group role-title"><g transform="translate(-28.8916015625,10)"><path class="background" aria-hidden="true" d="M0,0h0v0h0Z" pointer-events="none"/><g><g class="mark-text role-title-text" role="graphics-symbol" aria-roledescription="title" aria-label="Title text 'May'" pointer-events="none"><text text-anchor="start" transform="translate(0,3)" font-family="sans-serif" font-size="10px" fill="#000" opacity="1">May</text></g></g><path class="foreground" aria-hidden="true" d="" pointer-events="none" display="none"/></g></g></g><path class="foreground" aria-hidden="true" d="" display="none"/></g><g transform="translate(0,100)"><path class="background" aria-hidden="true" d="M0,0h0v20h0Z"/><g><g class="mark-group role-title"><g transform="translate(-31.6845703125,10)"><path class="background" aria-hidden="true" d="M0,0h0v0h0Z" pointer-events="none"/><g><g class="mark-text role-title-text" role="graphics-symbol" aria-roledescription="title" aria-label="Title text 'June'" pointer-events="none"><text text-anchor="start" transform="translate(0,3)" font-family="sans-serif" font-size="10px" fill="#000" opacity="1">June</text></g></g><path class="foreground" aria-hidden="true" d="" pointer-events="none" display="none"/></g></g></g><path class="foreground" aria-hidden="true" d="" display="none"/></g><g transform="translate(0,120)"><path class="background" aria-hidden="true" d="M0,0h0v20h0Z"/><g><g class="mark-group role-title"><g transform="translate(-27.783203125,10)"><path class="background" aria-hidden="true" d="M0,0h0v0h0Z" pointer-events="none"/><g><g class="mark-text role-title-text" role="graphics-symbol" aria-roledescription="title" aria-label="Title text 'July'" pointer-events="none"><text text-anchor="start" transform="translate(0,3)" font-family="sans-serif" font-size="10px" fill="#000" opacity="1">July</text></g></g><path class="foreground" aria-hidden="true" d="" pointer-events="none" display="none"/></g></g></g><path class="foreground" aria-hidden="true" d="" display="none"/></g><g transform="translate(0,140)"><path class="background" aria-hidden="true" d="M0,0h0v20h0Z"/><g><g class="mark-group role-title"><g transform="translate(-41.1328125,10)"><path class="background" aria-hidden="true" d="M0,0h0v0h0Z" pointer-events="none"/><g><g class="mark-text role-title-text" role="graphics-symbol" aria-roledescription="title" aria-label="Title text 'August'" pointer-events="none"><text text-anchor="start" transform="translate(0,3)" font-family="sans-serif" font-size="10px" fill="#000" opacity="1">August</text></g></g><path class="foreground" aria-hidden="true" d="" pointer-events="none" display="none"/></g></g></g><path class="foreground" aria-hidden="true" d="" display="none"/></g><g transform="translate(0,160)"><path class="background" aria-hidden="true" d="M0,0h0v20h0Z"/><g><g class="mark-group role-title"><g transform="translate(-58.916015625,10)"><path class="background" aria-hidden="true" d="M0,0h0v0h0Z" pointer-events="none"/><g><g class="mark-text role-title-text" role="graphics-symbol" aria-roledescription="title" aria-label="Title text 'September'" pointer-events="none"><text text-anchor="start" transform="translate(0,3)" font-family="sans-serif" font-size="10px" fill="#000" opacity="1">September</text></g></g><path class="foreground" aria-hidden="true" d="" pointer-events="none" display="none"/></g></g></g><path class="foreground" aria-hidden="true" d="" display="none"/></g><g transform="translate(0,180)"><path class="background" aria-hidden="true" d="M0,0h0v20h0Z"/><g><g class="mark-group role-title"><g transform="translate(-45.5712890625,10)"><path class="background" aria-hidden="true" d="M0,0h0v0h0Z" pointer-events="none"/><g><g class="mark-text role-title-text" role="graphics-symbol" aria-roledescription="title" aria-label="Title text 'October'" pointer-events="none"><text text-anchor="start" transform="translate(0,3)" font-family="sans-serif" font-size="10px" fill="#000" opacity="1">October</text></g></g><path class="foreground" aria-hidden="true" d="" pointer-events="none" display="none"/></g></g></g><path class="foreground" aria-hidden="true" d="" display="none"/></g><g transform="translate(0,200)"><path class="background" aria-hidden="true" d="M0,0h0v20h0Z"/><g><g class="mark-group role-title"><g transform="translate(-56.1279296875,10)"><path class="background" aria-hidden="true" d="M0,0h0v0h0Z" pointer-events="none"/><g><g class="mark-text role-title-text" role="graphics-symbol" aria-roledescription="title" aria-label="Title text 'November'" pointer-events="none"><text text-anchor="start" transform="translate(0,3)" font-family="sans-serif" font-size="10px" fill="#000" opacity="1">November</text></g></g><path class="foreground" aria-hidden="true" d="" pointer-events="none" display="none"/></g></g></g><path class="foreground" aria-hidden="true" d="" display="none"/></g><g transform="translate(0,220)"><path class="background" aria-hidden="true" d="M0,0h0v20h0Z"/><g><g class="mark-group role-title"><g transform="translate(-56.1279296875,10)"><path class="background" aria-hidden="true" d="M0,0h0v0h0Z" pointer-events="none"/><g><g class="mark-text role-title-text" role="graphics-symbol" aria-roledescription="title" aria-label="Title text 'December'" pointer-events="none"><text text-anchor="start" transform="translate(0,3)" font-family="sans-serif" font-size="10px" fill="#000" opacity="1">December</text></g></g><path class="foreground" aria-hidden="true" d="" pointer-events="none" display="none"/></g></g></g><path class="foreground" aria-hidden="true" d="" display="none"/></g></g><g class="mark-group role-column-footer column_footer" role="graphics-object" aria-roledescription="group mark container"><g transform="translate(0,240)"><path class="background" aria-hidden="true" d="M0,0h400v0h-400Z"/><g><g class="mark-group role-axis" role="graphics-symbol" aria-roledescription="axis" aria-label="X-axis titled 'Average Temp. by Month (F)' for a linear scale with values from −20 to 100"><g transform="translate(0.5,0.5)"><path class="background" aria-hidden="true" d="M0,0h0v0h0Z" pointer-events="none"/><g><g class="mark-rule role-axis-tick" pointer-events="none"><line transform="translate(0,0)" x2="0" y2="5" stroke="#888" stroke-width="1" opacity="1"/><line transform="translate(33,0)" x2="0" y2="5" stroke="#888" stroke-width="1" opacity="1"/><line transform="translate(67,0)" x2="0" y2="5" stroke="#888" stroke-width="1" opacity="1"/><line transform="translate(100,0)" x2="0" y2="5" stroke="#888" stroke-width="1" opacity="1"/><line transform="translate(133,0)" x2="0" y2="5" stroke="#888" stroke-width="1" opacity="1"/><line transform="translate(167,0)" x2="0" y2="5" stroke="#888" stroke-width="1" opacity="1"/><line transform="translate(200,0)" x2="0" y2="5" stroke="#888" stroke-width="1" opacity="1"/><line transform="translate(233,0)" x2="0" y2="5" stroke="#888" stroke-width="1" opacity="1"/><line transform="translate(267,0)" x2="0" y2="5" stroke="#888" stroke-width="1" opacity="1"/><line transform="translate(300,0)" x2="0" y2="5" stroke="#888" stroke-width="1" opacity="1"/><line transform="translate(333,0)" x2="0" y2="5" stroke="#888" stroke-width="1" opacity="1"/><line transform="translate(367,0)" x2="0" y2="5" stroke="#888" stroke-width="1" opacity="1"/><line transform="translate(400,0)" x2="0" y2="5" stroke="#888" stroke-width="1" opacity="1"/></g><g class="mark-text role-axis-label" pointer-events="none"><text text-anchor="start" transform="translate(0,15)" font-family="sans-serif" font-size="10px" fill="#000" opacity="1">−20</text><text text-anchor="middle" transform="translate(33.33333333333333,15)" font-family="sans-serif" font-size="10px" fill="#000" opacity="1">−10</text><text text-anchor="middle" transform="translate(66.66666666666666,15)" font-family="sans-serif" font-size="10px" fill="#000" opacity="1">0</text><text text-anchor="middle" transform="translate(100,15)" font-family="sans-serif" font-size="10px" fill="#000" opacity="1">10</text><text text-anchor="middle" transform="translate(133.33333333333331,15)" font-family="sans-serif" font-size="10px" fill="#000" opacity="1">20</text><text text-anchor="middle" transform="translate(166.66666666666669,15)" font-family="sans-serif" font-size="10px" fill="#000" opacity="1">30</text><text text-anchor="middle" transform="translate(200,15)" font-family="sans-serif" font-size="10px" fill="#000" opacity="1">40</text><text text-anchor="middle" transform="translate(233.33333333333334,15)" font-family="sans-serif" font-size="10px" fill="#000" opacity="1">50</text><text text-anchor="middle" transform="translate(266.66666666666663,15)" font-family="sans-serif" font-size="10px" fill="#000" opacity="1">60</text><text text-anchor="middle" transform="translate(300,15)" font-family="sans-serif" font-size="10px" fill="#000" opacity="1">70</text><text text-anchor="middle" transform="translate(333.33333333333337,15)" font-family="sans-serif" font-size="10px" fill="#000" opacity="1">80</text><text text-anchor="middle" transform="translate(366.66666666666663,15)" font-family="sans-serif" font-size="10px" fill="#000" opacity="1">90</text><text text-anchor="end" transform="translate(400,15)" font-family="sans-serif" font-size="10px" fill="#000" opacity="1">100</text></g><g class="mark-rule role-axis-domain" pointer-events="none"><line transform="translate(0,0)" x2="400" y2="0" stroke="#888" stroke-width="1" opacity="1"/></g><g class="mark-text role-axis-title" pointer-events="none"><text text-anchor="middle" transform="translate(200,30)" font-family="sans-serif" font-size="11px" font-weight="bold" fill="#000" opacity="1">Average Temp. by Month (F)</text></g></g><path class="foreground" aria-hidden="true" d="" pointer-events="none" display="none"/></g></g></g><path class="foreground" aria-hidden="true" d="" display="none"/></g></g><g class="mark-group role-scope cell" role="graphics-object" aria-roledescription="group mark container"><g transform="translate(0,0)"><path class="background" aria-hidden="true" d="M0,0h400v20h-400Z"/><g><g class="mark-group role-scope child_pathgroup" role="graphics-object" aria-roledescription="group mark container"><g transform="translate(0,0)"><path class="background" aria-hidden="true" d="M0,0h400v20h-400Z"/><g><g class="mark-area role-mark child_marks" role="graphics-symbol" aria-roledescription="area mark container"><path d="M0,19.866666666666667C22.222222222222218,19.055555555555557,44.44444444444444,18.244444444444447,66.66666666666666,15.466666666666669C88.88888888888887,12.68888888888889,111.1111111111111,6.08888888888889,133.33333333333331,3.200000000000001C155.55555555555554,0.31111111111111045,177.77777777777777,-1.8666666666666671,200,-1.8666666666666671C222.2222222222222,-1.8666666666666671,244.44444444444443,19.555555555555557,266.66666666666663,19.733333333333334C288.88888888888886,19.91111111111111,311.11111111111114,20,333.33333333333337,20C355.5555555555556,20,377.77777777777777,20,400,20L400,20C377.77777777777777,20,355.5555555555556,20,333.33333333333337,20C311.11111111111114,20,288.88888888888886,20,266.66666666666663,20C244.44444444444443,20,222.2222222222222,20,200,20C177.77777777777777,20,155.55555555555554,20,133.33333333333331,20C111.1111111111111,20,88.88888888888887,20,66.66666666666666,20C44.44444444444444,20,22.222222222222218,20,0,20Z" fill="rgb(251, 240, 178)" fill-opacity="0.8" stroke="lightgray" stroke-width="0.5"/></g></g><path class="foreground" aria-hidden="true" d="" display="none"/></g></g></g><path class="foreground" aria-hidden="true" d="" display="none"/></g><g transform="translate(0,20)"><path class="background" aria-hidden="true" d="M0,0h400v20h-400Z"/><g><g class="mark-group role-scope child_pathgroup" role="graphics-object" aria-roledescription="group mark container"><g transform="translate(0,0)"><path class="background" aria-hidden="true" d="M0,0h400v20h-400Z"/><g><g class="mark-area role-mark child_marks" role="graphics-symbol" aria-roledescription="area mark container"><path d="M0,20C22.222222222222218,19.57777777777778,44.44444444444444,19.155555555555555,66.66666666666666,17.46666666666667C88.88888888888887,15.77777777777778,111.1111111111111,4.355555555555552,133.33333333333331,2.933333333333332C155.55555555555554,1.511111111111111,177.77777777777777,0.8000000000000007,200,0.8000000000000007C222.2222222222222,0.8000000000000007,244.44444444444443,17.999999999999996,266.66666666666663,18.799999999999997C288.88888888888886,19.599999999999998,311.11111111111114,20,333.33333333333337,20C355.5555555555556,20,377.77777777777777,20,400,20L400,20C377.77777777777777,20,355.5555555555556,20,333.33333333333337,20C311.11111111111114,20,288.88888888888886,20,266.66666666666663,20C244.44444444444443,20,222.2222222222222,20,200,20C177.77777777777777,20,155.55555555555554,20,133.33333333333331,20C111.1111111111111,20,88.88888888888887,20,66.66666666666666,20C44.44444444444444,20,22.222222222222218,20,0,20Z" fill="rgb(253, 227, 156)" fill-opacity="0.8" stroke="lightgray" stroke-width="0.5"/></g></g><path class="foreground" aria-hidden="true" d="" display="none"/></g></g></g><path class="foreground" aria-hidden="true" d="" display="none"/></g><g transform="translate(0,40)"><path class="background" aria-hidden="true" d="M0,0h400v20h-400Z"/><g><g class="mark-group role-scope child_pathgroup" role="graphics-object" aria-roledescription="group mark container"><g transform="translate(0,0)"><path class="background" aria-hidden="true" d="M0,0h400v20h-400Z"/><g><g class="mark-area role-mark child_marks" role="graphics-symbol" aria-roledescription="area mark container"><path d="M0,20C22.222222222222218,19.955555555555556,44.44444444444444,19.91111111111111,66.66666666666666,19.733333333333334C88.88888888888887,19.555555555555557,111.1111111111111,18.711111111111112,133.33333333333331,16.666666666666664C155.55555555555554,14.622222222222216,177.77777777777777,-6,200,-6C222.2222222222222,-6,244.44444444444443,3.733333333333337,266.66666666666663,7.866666666666667C288.88888888888886,12.000000000000004,311.11111111111114,17.999999999999993,333.33333333333337,18.799999999999997C355.5555555555556,19.599999999999998,377.77777777777777,19.8,400,20L400,20C377.77777777777777,20,355.5555555555556,20,333.33333333333337,20C311.11111111111114,20,288.88888888888886,20,266.66666666666663,20C244.44444444444443,20,222.2222222222222,20,200,20C177.77777777777777,20,155.55555555555554,20,133.33333333333331,20C111.1111111111111,20,88.88888888888887,20,66.66666666666666,20C44.44444444444444,20,22.222222222222218,20,0,20Z" fill="rgb(66, 0, 25)" fill-opacity="0.8" stroke="lightgray" stroke-width="0.5"/></g></g><path class="foreground" aria-hidden="true" d="" display="none"/></g></g></g><path class="foreground" aria-hidden="true" d="" display="none"/></g><g transform="translate(0,60)"><path class="background" aria-hidden="true" d="M0,0h400v20h-400Z"/><g><g class="mark-group role-scope child_pathgroup" role="graphics-object" aria-roledescription="group mark container"><g transform="translate(0,0)"><path class="background" aria-hidden="true" d="M0,0h400v20h-400Z"/><g><g class="mark-area role-mark child_marks" role="graphics-symbol" aria-roledescription="area mark container"><path d="M0,20C22.222222222222218,20,44.44444444444444,20,66.66666666666666,20C88.88888888888887,20,111.1111111111111,20,133.33333333333331,20C155.55555555555554,20,177.77777777777777,12.177777777777777,200,8.399999999999999C222.2222222222222,4.622222222222223,244.44444444444443,-2.6666666666666643,266.66666666666663,-2.6666666666666643C288.88888888888886,-2.6666666666666643,311.11111111111114,13.333333333333329,333.33333333333337,16C355.5555555555556,18.666666666666668,377.77777777777777,19.333333333333332,400,20L400,20C377.77777777777777,20,355.5555555555556,20,333.33333333333337,20C311.11111111111114,20,288.88888888888886,20,266.66666666666663,20C244.44444444444443,20,222.2222222222222,20,200,20C177.77777777777777,20,155.55555555555554,20,133.33333333333331,20C111.1111111111111,20,88.88888888888887,20,66.66666666666666,20C44.44444444444444,20,22.222222222222218,20,0,20Z" fill="rgb(0, 0, 0)" fill-opacity="0.8" stroke="lightgray" stroke-width="0.5"/></g></g><path class="foreground" aria-hidden="true" d="" display="none"/></g></g></g><path class="foreground" aria-hidden="true" d="" display="none"/></g><g transform="translate(0,80)"><path class="background" aria-hidden="true" d="M0,0h400v20h-400Z"/><g><g class="mark-group role-scope child_pathgroup" role="graphics-object" aria-roledescription="group mark container"><g transform="translate(0,0)"><path class="background" aria-hidden="true" d="M0,0h400v20h-400Z"/><g><g class="mark-area role-mark child_marks" role="graphics-symbol" aria-roledescription="area mark container"><path d="M0,20C22.222222222222218,20,44.44444444444444,20,66.66666666666666,20C88.88888888888887,20,111.1111111111111,20,133.33333333333331,20C155.55555555555554,20,177.77777777777777,19.91111111111111,200,19.733333333333334C222.2222222222222,19.555555555555557,244.44444444444443,1.1111111111111116,266.66666666666663,0.9333333333333336C288.88888888888886,0.7555555555555553,311.11111111111114,0.6666666666666661,333.33333333333337,0.6666666666666661C355.5555555555556,0.6666666666666661,377.77777777777777,10.266666666666664,400,19.866666666666667L400,20C377.77777777777777,20,355.5555555555556,20,333.33333333333337,20C311.11111111111114,20,288.88888888888886,20,266.66666666666663,20C244.44444444444443,20,222.2222222222222,20,200,20C177.77777777777777,20,155.55555555555554,20,133.33333333333331,20C111.1111111111111,20,88.88888888888887,20,66.66666666666666,20C44.44444444444444,20,22.222222222222218,20,0,20Z" fill="rgb(0, 0, 0)" fill-opacity="0.8" stroke="lightgray" stroke-width="0.5"/></g></g><path class="foreground" aria-hidden="true" d="" display="none"/></g></g></g><path class="foreground" aria-hidden="true" d="" display="none"/></g><g transform="translate(0,100)"><path class="background" aria-hidden="true" d="M0,0h400v20h-400Z"/><g><g class="mark-group role-scope child_pathgroup" role="graphics-object" aria-roledescription="group mark container"><g transform="translate(0,0)"><path class="background" aria-hidden="true" d="M0,0h400v20h-400Z"/><g><g class="mark-area role-mark child_marks" role="graphics-symbol" aria-roledescription="area mark container"><path d="M0,20C22.222222222222218,20,44.44444444444444,20,66.66666666666666,20C88.88888888888887,20,111.1111111111111,20,133.33333333333331,20C155.55555555555554,20,177.77777777777777,20,200,20C222.2222222222222,20,244.44444444444443,19.68888888888889,266.66666666666663,19.06666666666667C288.88888888888886,18.44444444444445,311.11111111111114,-12.666666666666664,333.33333333333337,-12.666666666666664C355.5555555555556,-12.666666666666664,377.77777777777777,2.1333333333333346,400,16.933333333333337L400,20C377.77777777777777,20,355.5555555555556,20,333.33333333333337,20C311.11111111111114,20,288.88888888888886,20,266.66666666666663,20C244.44444444444443,20,222.2222222222222,20,200,20C177.77777777777777,20,155.55555555555554,20,133.33333333333331,20C111.1111111111111,20,88.88888888888887,20,66.66666666666666,20C44.44444444444444,20,22.222222222222218,20,0,20Z" fill="rgb(0, 0, 0)" fill-opacity="0.8" stroke="lightgray" stroke-width="0.5"/></g></g><path class="foreground" aria-hidden="true" d="" display="none"/></g></g></g><path class="foreground" aria-hidden="true" d="" display="none"/></g><g transform="translate(0,120)"><path class="background" aria-hidden="true" d="M0,0h400v20h-400Z"/><g><g class="mark-group role-scope child_pathgroup" role="graphics-object" aria-roledescription="group mark container"><g transform="translate(0,0)"><path class="background" aria-hidden="true" d="M0,0h400v20h-400Z"/><g><g class="mark-area role-mark child_marks" role="graphics-symbol" aria-roledescription="area mark container"><path d="M0,20C22.222222222222218,20,44.44444444444444,20,66.66666666666666,20C88.88888888888887,20,111.1111111111111,20,133.33333333333331,20C155.55555555555554,20,177.77777777777777,20,200,20C222.2222222222222,20,244.44444444444443,19.955555555555556,266.66666666666663,19.866666666666667C288.88888888888886,19.77777777777778,311.11111111111114,-13.733333333333334,333.33333333333337,-13.733333333333334C355.5555555555556,-13.733333333333334,377.77777777777777,0.3333333333333286,400,14.399999999999999L400,20C377.77777777777777,20,355.5555555555556,20,333.33333333333337,20C311.11111111111114,20,288.88888888888886,20,266.66666666666663,20C244.44444444444443,20,222.2222222222222,20,200,20C177.77777777777777,20,155.55555555555554,20,133.33333333333331,20C111.1111111111111,20,88.88888888888887,20,66.66666666666666,20C44.44444444444444,20,22.222222222222218,20,0,20Z" fill="rgb(0, 0, 0)" fill-opacity="0.8" stroke="lightgray" stroke-width="0.5"/></g></g><path class="foreground" aria-hidden="true" d="" display="none"/></g></g></g><path class="foreground" aria-hidden="true" d="" display="none"/></g><g transform="translate(0,140)"><path class="background" aria-hidden="true" d="M0,0h400v20h-400Z"/><g><g class="mark-group role-scope child_pathgroup" role="graphics-object" aria-roledescription="group mark container"><g transform="translate(0,0)"><path class="background" aria-hidden="true" d="M0,0h400v20h-400Z"/><g><g class="mark-area role-mark child_marks" role="graphics-symbol" aria-roledescription="area mark container"><path d="M0,20C22.222222222222218,20,44.44444444444444,20,66.66666666666666,20C88.88888888888887,20,111.1111111111111,20,133.33333333333331,20C155.55555555555554,20,177.77777777777777,20,200,20C222.2222222222222,20,244.44444444444443,19.955555555555556,266.66666666666663,19.866666666666667C288.88888888888886,19.77777777777778,311.11111111111114,-18.266666666666666,333.33333333333337,-18.266666666666666C355.5555555555556,-18.266666666666666,377.77777777777777,0.06666666666666288,400,18.4L400,20C377.77777777777777,20,355.5555555555556,20,333.33333333333337,20C311.11111111111114,20,288.88888888888886,20,266.66666666666663,20C244.44444444444443,20,222.2222222222222,20,200,20C177.77777777777777,20,155.55555555555554,20,133.33333333333331,20C111.1111111111111,20,88.88888888888887,20,66.66666666666666,20C44.44444444444444,20,22.222222222222218,20,0,20Z" fill="rgb(0, 0, 0)" fill-opacity="0.8" stroke="lightgray" stroke-width="0.5"/></g></g><path class="foreground" aria-hidden="true" d="" display="none"/></g></g></g><path class="foreground" aria-hidden="true" d="" display="none"/></g><g transform="translate(0,160)"><path class="background" aria-hidden="true" d="M0,0h400v20h-400Z"/><g><g class="mark-group role-scope child_pathgroup" role="graphics-object" aria-roledescription="group mark container"><g transform="translate(0,0)"><path class="background" aria-hidden="true" d="M0,0h400v20h-400Z"/><g><g class="mark-area role-mark child_marks" role="graphics-symbol" aria-roledescription="area mark container"><path d="M0,20C22.222222222222218,20,44.44444444444444,20,66.66666666666666,20C88.88888888888887,20,111.1111111111111,20,133.33333333333331,20C155.55555555555554,20,177.77777777777777,20,200,20C222.2222222222222,20,244.44444444444443,14.422222222222214,266.66666666666663,9.866666666666664C288.88888888888886,5.3111111111111065,311.11111111111114,-7.333333333333335,333.33333333333337,-7.333333333333335C355.5555555555556,-7.333333333333335,377.77777777777777,5.999999999999998,400,19.333333333333332L400,20C377.77777777777777,20,355.5555555555556,20,333.33333333333337,20C311.11111111111114,20,288.88888888888886,20,266.66666666666663,20C244.44444444444443,20,222.2222222222222,20,200,20C177.77777777777777,20,155.55555555555554,20,133.33333333333331,20C111.1111111111111,20,88.88888888888887,20,66.66666666666666,20C44.44444444444444,20,22.222222222222218,20,0,20Z" fill="rgb(0, 0, 0)" fill-opacity="0.8" stroke="lightgray" stroke-width="0.5"/></g></g><path class="foreground" aria-hidden="true" d="" display="none"/></g></g></g><path class="foreground" aria-hidden="true" d="" display="none"/></g><g transform="translate(0,180)"><path class="background" aria-hidden="true" d="M0,0h400v20h-400Z"/><g><g class="mark-group role-scope child_pathgroup" role="graphics-object" aria-roledescription="group mark container"><g transform="translate(0,0)"><path class="background" aria-hidden="true" d="M0,0h400v20h-400Z"/><g><g class="mark-area role-mark child_marks" role="graphics-symbol" aria-roledescription="area mark container"><path d="M0,20C22.222222222222218,20,44.44444444444444,20,66.66666666666666,20C88.88888888888887,20,111.1111111111111,20,133.33333333333331,20C155.55555555555554,20,177.77777777777777,18.177777777777777,200,14.533333333333331C222.2222222222222,10.88888888888889,244.44444444444443,-7.866666666666667,266.66666666666663,-7.866666666666667C288.88888888888886,-7.866666666666667,311.11111111111114,11.11111111111111,333.33333333333337,14.66666666666667C355.5555555555556,18.22222222222222,377.77777777777777,19.11111111111111,400,20L400,20C377.77777777777777,20,355.5555555555556,20,333.33333333333337,20C311.11111111111114,20,288.88888888888886,20,266.66666666666663,20C244.44444444444443,20,222.2222222222222,20,200,20C177.77777777777777,20,155.55555555555554,20,133.33333333333331,20C111.1111111111111,20,88.88888888888887,20,66.66666666666666,20C44.44444444444444,20,22.222222222222218,20,0,20Z" fill="rgb(0, 0, 0)" fill-opacity="0.8" stroke="lightgray" stroke-width="0.5"/></g></g><path class="foreground" aria-hidden="true" d="" display="none"/></g></g></g><path class="foreground" aria-hidden="true" d="" display="none"/></g><g transform="translate(0,200)"><path class="background" aria-hidden="true" d="M0,0h400v20h-400Z"/><g><g class="mark-group role-scope child_pathgroup" role="graphics-object" aria-roledescription="group mark container"><g transform="translate(0,0)"><path class="background" aria-hidden="true" d="M0,0h400v20h-400Z"/><g><g class="mark-area role-mark child_marks" role="graphics-symbol" aria-roledescription="area mark container"><path d="M0,20C22.222222222222218,20,44.44444444444444,20,66.66666666666666,20C88.88888888888887,20,111.1111111111111,19.066666666666666,133.33333333333331,17.2C155.55555555555554,15.333333333333332,177.77777777777777,-3.599999999999998,200,-3.599999999999998C222.2222222222222,-3.599999999999998,244.44444444444443,3.9777777777777823,266.66666666666663,7.866666666666667C288.88888888888886,11.755555555555558,311.11111111111114,19.555555555555557,333.33333333333337,19.733333333333334C355.5555555555556,19.91111111111111,377.77777777777777,19.955555555555556,400,20L400,20C377.77777777777777,20,355.5555555555556,20,333.33333333333337,20C311.11111111111114,20,288.88888888888886,20,266.66666666666663,20C244.44444444444443,20,222.2222222222222,20,200,20C177.77777777777777,20,155.55555555555554,20,133.33333333333331,20C111.1111111111111,20,88.88888888888887,20,66.66666666666666,20C44.44444444444444,20,22.222222222222218,20,0,20Z" fill="rgb(62, 0, 25)" fill-opacity="0.8" stroke="lightgray" stroke-width="0.5"/></g></g><path class="foreground" aria-hidden="true" d="" display="none"/></g></g></g><path class="foreground" aria-hidden="true" d="" display="none"/></g><g transform="translate(0,220)"><path class="background" aria-hidden="true" d="M0,0h400v20h-400Z"/><g><g class="mark-group role-scope child_pathgroup" role="graphics-object" aria-roledescription="group mark container"><g transform="translate(0,0)"><path class="background" aria-hidden="true" d="M0,0h400v20h-400Z"/><g><g class="mark-area role-mark child_marks" role="graphics-symbol" aria-roledescription="area mark container"><path d="M0,20C22.222222222222218,19.866666666666667,44.44444444444444,19.733333333333334,66.66666666666666,19.200000000000003C88.88888888888887,18.66666666666667,111.1111111111111,12.466666666666667,133.33333333333331,8.533333333333335C155.55555555555554,4.6000000000000005,177.77777777777777,-4.399999999999999,200,-4.399999999999999C222.2222222222222,-4.399999999999999,244.44444444444443,17.555555555555554,266.66666666666663,18.53333333333333C288.88888888888886,19.51111111111111,311.11111111111114,20,333.33333333333337,20C355.5555555555556,20,377.77777777777777,20,400,20L400,20C377.77777777777777,20,355.5555555555556,20,333.33333333333337,20C311.11111111111114,20,288.88888888888886,20,266.66666666666663,20C244.44444444444443,20,222.2222222222222,20,200,20C177.77777777777777,20,155.55555555555554,20,133.33333333333331,20C111.1111111111111,20,88.88888888888887,20,66.66666666666666,20C44.44444444444444,20,22.222222222222218,20,0,20Z" fill="rgb(244, 126, 76)" fill-opacity="0.8" stroke="lightgray" stroke-width="0.5"/></g></g><path class="foreground" aria-hidden="true" d="" display="none"/></g></g></g><path class="foreground" aria-hidden="true" d="" display="none"/></g></g><g class="mark-group role-title"><g transform="translate(401,-19.366666666666667)"><path class="background" aria-hidden="true" d="M0,0h0v0h0Z" pointer-events="none"/><g><g class="mark-text role-title-text" role="graphics-symbol" aria-roledescription="title" aria-label="Title text 'Cottage Grove Weather'" pointer-events="none"><text text-anchor="end" transform="translate(0,10)" font-family="sans-serif" font-size="13px" font-weight="bold" fill="#000" opacity="1">Cottage Grove Weather</text></g></g><path class="foreground" aria-hidden="true" d="" pointer-events="none" display="none"/></g></g></g><path class="foreground" aria-hidden="true" d="" display="none"/></g></g></g></svg>