<?xml version="1.0" encoding="utf-8" standalone="no"?>
<!DOCTYPE svg PUBLIC "-//W3C//DTD SVG 1.1//EN"
  "http://www.w3.org/Graphics/SVG/1.1/DTD/svg11.dtd">
<svg height="360pt" version="1.1" viewBox="0 0 720 360" width="720pt" xmlns="http://www.w3.org/2000/svg" xmlns:xlink="http://www.w3.org/1999/xlink">
 <metadata>
  <rdf:RDF xmlns:cc="http://creativecommons.org/ns#" xmlns:dc="http://purl.org/dc/elements/1.1/" xmlns:rdf="http://www.w3.org/1999/02/22-rdf-syntax-ns#">
   <cc:Work>
    <dc:type rdf:resource="http://purl.org/dc/dcmitype/StillImage"/>
    <dc:date>2022-04-05T19:56:23.050710</dc:date>
    <dc:format>image/svg+xml</dc:format>
    <dc:creator>
     <cc:Agent>
      <dc:title>Matplotlib v3.4.3, https://matplotlib.org/</dc:title>
     </cc:Agent>
    </dc:creator>
   </cc:Work>
  </rdf:RDF>
 </metadata>
 <defs>
  <style type="text/css">*{stroke-linecap:butt;stroke-linejoin:round;}</style>
 </defs>
 <g id="figure_1">
  <g id="patch_1">
   <path d="M 0 360 
L 720 360 
L 720 0 
L 0 0 
z
" style="fill:none;"/>
  </g>
  <g id="axes_1">
   <g id="patch_2">
    <path clip-path="url(#pdefb9df294)" d="M 10.8 265.09916 
L 40.144538 265.09916 
L 40.144538 235.754622 
L 10.8 235.754622 
z
" style="fill:#d2b48c;stroke:#d2b48c;stroke-linejoin:miter;"/>
   </g>
   <g id="patch_3">
    <path clip-path="url(#pdefb9df294)" d="M 10.8 229.885714 
L 40.144538 229.885714 
L 40.144538 200.541176 
L 10.8 200.541176 
z
" style="fill:#d2b48c;stroke:#d2b48c;stroke-linejoin:miter;"/>
   </g>
   <g id="patch_4">
    <path clip-path="url(#pdefb9df294)" d="M 10.8 194.672269 
L 40.144538 194.672269 
L 40.144538 165.327731 
L 10.8 165.327731 
z
" style="fill:#d2b48c;stroke:#d2b48c;stroke-linejoin:miter;"/>
   </g>
   <g id="patch_5">
    <path clip-path="url(#pdefb9df294)" d="M 10.8 159.458824 
L 40.144538 159.458824 
L 40.144538 130.114286 
L 10.8 130.114286 
z
" style="fill:#d2b48c;stroke:#d2b48c;stroke-linejoin:miter;"/>
   </g>
   <g id="patch_6">
    <path clip-path="url(#pdefb9df294)" d="M 10.8 124.245378 
L 40.144538 124.245378 
L 40.144538 94.90084 
L 10.8 94.90084 
z
" style="fill:#d2b48c;stroke:#d2b48c;stroke-linejoin:miter;"/>
   </g>
   <g id="patch_7">
    <path clip-path="url(#pdefb9df294)" d="M 46.013445 265.09916 
L 75.357983 265.09916 
L 75.357983 235.754622 
L 46.013445 235.754622 
z
" style="fill:#d2b48c;stroke:#d2b48c;stroke-linejoin:miter;"/>
   </g>
   <g id="patch_8">
    <path clip-path="url(#pdefb9df294)" d="M 46.013445 229.885714 
L 75.357983 229.885714 
L 75.357983 200.541176 
L 46.013445 200.541176 
z
" style="fill:#d2b48c;stroke:#d2b48c;stroke-linejoin:miter;"/>
   </g>
   <g id="patch_9">
    <path clip-path="url(#pdefb9df294)" d="M 46.013445 194.672269 
L 75.357983 194.672269 
L 75.357983 165.327731 
L 46.013445 165.327731 
z
" style="fill:#d2b48c;stroke:#d2b48c;stroke-linejoin:miter;"/>
   </g>
   <g id="patch_10">
    <path clip-path="url(#pdefb9df294)" d="M 46.013445 159.458824 
L 75.357983 159.458824 
L 75.357983 130.114286 
L 46.013445 130.114286 
z
" style="fill:#d2b48c;stroke:#d2b48c;stroke-linejoin:miter;"/>
   </g>
   <g id="patch_11">
    <path clip-path="url(#pdefb9df294)" d="M 46.013445 124.245378 
L 75.357983 124.245378 
L 75.357983 94.90084 
L 46.013445 94.90084 
z
" style="fill:#d2b48c;stroke:#d2b48c;stroke-linejoin:miter;"/>
   </g>
   <g id="patch_12">
    <path clip-path="url(#pdefb9df294)" d="M 81.226891 265.09916 
L 110.571429 265.09916 
L 110.571429 235.754622 
L 81.226891 235.754622 
z
" style="fill:#d2b48c;stroke:#d2b48c;stroke-linejoin:miter;"/>
   </g>
   <g id="patch_13">
    <path clip-path="url(#pdefb9df294)" d="M 81.226891 229.885714 
L 110.571429 229.885714 
L 110.571429 200.541176 
L 81.226891 200.541176 
z
" style="fill:#d2b48c;stroke:#d2b48c;stroke-linejoin:miter;"/>
   </g>
   <g id="patch_14">
    <path clip-path="url(#pdefb9df294)" d="M 81.226891 194.672269 
L 110.571429 194.672269 
L 110.571429 165.327731 
L 81.226891 165.327731 
z
" style="fill:#d2b48c;stroke:#d2b48c;stroke-linejoin:miter;"/>
   </g>
   <g id="patch_15">
    <path clip-path="url(#pdefb9df294)" d="M 81.226891 159.458824 
L 110.571429 159.458824 
L 110.571429 130.114286 
L 81.226891 130.114286 
z
" style="fill:#d2b48c;stroke:#d2b48c;stroke-linejoin:miter;"/>
   </g>
   <g id="patch_16">
    <path clip-path="url(#pdefb9df294)" d="M 81.226891 124.245378 
L 110.571429 124.245378 
L 110.571429 94.90084 
L 81.226891 94.90084 
z
" style="fill:#d2b48c;stroke:#d2b48c;stroke-linejoin:miter;"/>
   </g>
   <g id="patch_17">
    <path clip-path="url(#pdefb9df294)" d="M 116.440336 265.09916 
L 145.784874 265.09916 
L 145.784874 235.754622 
L 116.440336 235.754622 
z
" style="fill:#d2b48c;stroke:#d2b48c;stroke-linejoin:miter;"/>
   </g>
   <g id="patch_18">
    <path clip-path="url(#pdefb9df294)" d="M 116.440336 229.885714 
L 145.784874 229.885714 
L 145.784874 200.541176 
L 116.440336 200.541176 
z
" style="fill:#d2b48c;stroke:#d2b48c;stroke-linejoin:miter;"/>
   </g>
   <g id="patch_19">
    <path clip-path="url(#pdefb9df294)" d="M 116.440336 194.672269 
L 145.784874 194.672269 
L 145.784874 165.327731 
L 116.440336 165.327731 
z
" style="fill:#d2b48c;stroke:#d2b48c;stroke-linejoin:miter;"/>
   </g>
   <g id="patch_20">
    <path clip-path="url(#pdefb9df294)" d="M 116.440336 159.458824 
L 145.784874 159.458824 
L 145.784874 130.114286 
L 116.440336 130.114286 
z
" style="fill:#d2b48c;stroke:#d2b48c;stroke-linejoin:miter;"/>
   </g>
   <g id="patch_21">
    <path clip-path="url(#pdefb9df294)" d="M 116.440336 124.245378 
L 145.784874 124.245378 
L 145.784874 94.90084 
L 116.440336 94.90084 
z
" style="fill:#d2b48c;stroke:#d2b48c;stroke-linejoin:miter;"/>
   </g>
   <g id="patch_22">
    <path clip-path="url(#pdefb9df294)" d="M 151.653782 265.09916 
L 180.998319 265.09916 
L 180.998319 235.754622 
L 151.653782 235.754622 
z
" style="fill:#d2b48c;stroke:#d2b48c;stroke-linejoin:miter;"/>
   </g>
   <g id="patch_23">
    <path clip-path="url(#pdefb9df294)" d="M 151.653782 229.885714 
L 180.998319 229.885714 
L 180.998319 200.541176 
L 151.653782 200.541176 
z
" style="fill:#d2b48c;stroke:#d2b48c;stroke-linejoin:miter;"/>
   </g>
   <g id="patch_24">
    <path clip-path="url(#pdefb9df294)" d="M 151.653782 194.672269 
L 180.998319 194.672269 
L 180.998319 165.327731 
L 151.653782 165.327731 
z
" style="fill:#d2b48c;stroke:#d2b48c;stroke-linejoin:miter;"/>
   </g>
   <g id="patch_25">
    <path clip-path="url(#pdefb9df294)" d="M 151.653782 159.458824 
L 180.998319 159.458824 
L 180.998319 130.114286 
L 151.653782 130.114286 
z
" style="fill:#d2b48c;stroke:#d2b48c;stroke-linejoin:miter;"/>
   </g>
   <g id="patch_26">
    <path clip-path="url(#pdefb9df294)" d="M 151.653782 124.245378 
L 180.998319 124.245378 
L 180.998319 94.90084 
L 151.653782 94.90084 
z
" style="fill:#d2b48c;stroke:#d2b48c;stroke-linejoin:miter;"/>
   </g>
   <g id="patch_27">
    <path clip-path="url(#pdefb9df294)" d="M 186.867227 265.09916 
L 216.211765 265.09916 
L 216.211765 235.754622 
L 186.867227 235.754622 
z
" style="fill:#d2b48c;stroke:#d2b48c;stroke-linejoin:miter;"/>
   </g>
   <g id="patch_28">
    <path clip-path="url(#pdefb9df294)" d="M 186.867227 229.885714 
L 216.211765 229.885714 
L 216.211765 200.541176 
L 186.867227 200.541176 
z
" style="fill:#d2b48c;stroke:#d2b48c;stroke-linejoin:miter;"/>
   </g>
   <g id="patch_29">
    <path clip-path="url(#pdefb9df294)" d="M 186.867227 194.672269 
L 216.211765 194.672269 
L 216.211765 165.327731 
L 186.867227 165.327731 
z
" style="fill:#d2b48c;stroke:#d2b48c;stroke-linejoin:miter;"/>
   </g>
   <g id="patch_30">
    <path clip-path="url(#pdefb9df294)" d="M 186.867227 159.458824 
L 216.211765 159.458824 
L 216.211765 130.114286 
L 186.867227 130.114286 
z
" style="fill:#d2b48c;stroke:#d2b48c;stroke-linejoin:miter;"/>
   </g>
   <g id="patch_31">
    <path clip-path="url(#pdefb9df294)" d="M 186.867227 124.245378 
L 216.211765 124.245378 
L 216.211765 94.90084 
L 186.867227 94.90084 
z
" style="fill:#d2b48c;stroke:#d2b48c;stroke-linejoin:miter;"/>
   </g>
   <g id="patch_32">
    <path clip-path="url(#pdefb9df294)" d="M 222.080672 265.09916 
L 251.42521 265.09916 
L 251.42521 235.754622 
L 222.080672 235.754622 
z
" style="fill:#d2b48c;stroke:#d2b48c;stroke-linejoin:miter;"/>
   </g>
   <g id="patch_33">
    <path clip-path="url(#pdefb9df294)" d="M 222.080672 229.885714 
L 251.42521 229.885714 
L 251.42521 200.541176 
L 222.080672 200.541176 
z
" style="fill:#d2b48c;stroke:#d2b48c;stroke-linejoin:miter;"/>
   </g>
   <g id="patch_34">
    <path clip-path="url(#pdefb9df294)" d="M 222.080672 194.672269 
L 251.42521 194.672269 
L 251.42521 165.327731 
L 222.080672 165.327731 
z
" style="fill:#d2b48c;stroke:#d2b48c;stroke-linejoin:miter;"/>
   </g>
   <g id="patch_35">
    <path clip-path="url(#pdefb9df294)" d="M 222.080672 159.458824 
L 251.42521 159.458824 
L 251.42521 130.114286 
L 222.080672 130.114286 
z
" style="fill:#d2b48c;stroke:#d2b48c;stroke-linejoin:miter;"/>
   </g>
   <g id="patch_36">
    <path clip-path="url(#pdefb9df294)" d="M 222.080672 124.245378 
L 251.42521 124.245378 
L 251.42521 94.90084 
L 222.080672 94.90084 
z
" style="fill:#d2b48c;stroke:#d2b48c;stroke-linejoin:miter;"/>
   </g>
   <g id="patch_37">
    <path clip-path="url(#pdefb9df294)" d="M 257.294118 265.09916 
L 286.638655 265.09916 
L 286.638655 235.754622 
L 257.294118 235.754622 
z
" style="fill:#d2b48c;stroke:#d2b48c;stroke-linejoin:miter;"/>
   </g>
   <g id="patch_38">
    <path clip-path="url(#pdefb9df294)" d="M 257.294118 229.885714 
L 286.638655 229.885714 
L 286.638655 200.541176 
L 257.294118 200.541176 
z
" style="fill:#d2b48c;stroke:#d2b48c;stroke-linejoin:miter;"/>
   </g>
   <g id="patch_39">
    <path clip-path="url(#pdefb9df294)" d="M 257.294118 194.672269 
L 286.638655 194.672269 
L 286.638655 165.327731 
L 257.294118 165.327731 
z
" style="fill:#d2b48c;stroke:#d2b48c;stroke-linejoin:miter;"/>
   </g>
   <g id="patch_40">
    <path clip-path="url(#pdefb9df294)" d="M 257.294118 159.458824 
L 286.638655 159.458824 
L 286.638655 130.114286 
L 257.294118 130.114286 
z
" style="fill:#d2b48c;stroke:#d2b48c;stroke-linejoin:miter;"/>
   </g>
   <g id="patch_41">
    <path clip-path="url(#pdefb9df294)" d="M 257.294118 124.245378 
L 286.638655 124.245378 
L 286.638655 94.90084 
L 257.294118 94.90084 
z
" style="fill:#d2b48c;stroke:#d2b48c;stroke-linejoin:miter;"/>
   </g>
   <g id="patch_42">
    <path clip-path="url(#pdefb9df294)" d="M 292.507563 265.09916 
L 321.852101 265.09916 
L 321.852101 235.754622 
L 292.507563 235.754622 
z
" style="fill:#d2b48c;stroke:#d2b48c;stroke-linejoin:miter;"/>
   </g>
   <g id="patch_43">
    <path clip-path="url(#pdefb9df294)" d="M 292.507563 229.885714 
L 321.852101 229.885714 
L 321.852101 200.541176 
L 292.507563 200.541176 
z
" style="fill:#d2b48c;stroke:#d2b48c;stroke-linejoin:miter;"/>
   </g>
   <g id="patch_44">
    <path clip-path="url(#pdefb9df294)" d="M 292.507563 194.672269 
L 321.852101 194.672269 
L 321.852101 165.327731 
L 292.507563 165.327731 
z
" style="fill:#d2b48c;stroke:#d2b48c;stroke-linejoin:miter;"/>
   </g>
   <g id="patch_45">
    <path clip-path="url(#pdefb9df294)" d="M 292.507563 159.458824 
L 321.852101 159.458824 
L 321.852101 130.114286 
L 292.507563 130.114286 
z
" style="fill:#d2b48c;stroke:#d2b48c;stroke-linejoin:miter;"/>
   </g>
   <g id="patch_46">
    <path clip-path="url(#pdefb9df294)" d="M 292.507563 124.245378 
L 321.852101 124.245378 
L 321.852101 94.90084 
L 292.507563 94.90084 
z
" style="fill:#d2b48c;stroke:#d2b48c;stroke-linejoin:miter;"/>
   </g>
   <g id="patch_47">
    <path clip-path="url(#pdefb9df294)" d="M 327.721008 265.09916 
L 357.065546 265.09916 
L 357.065546 235.754622 
L 327.721008 235.754622 
z
" style="fill:#d2b48c;stroke:#d2b48c;stroke-linejoin:miter;"/>
   </g>
   <g id="patch_48">
    <path clip-path="url(#pdefb9df294)" d="M 327.721008 229.885714 
L 357.065546 229.885714 
L 357.065546 200.541176 
L 327.721008 200.541176 
z
" style="fill:#d2b48c;stroke:#d2b48c;stroke-linejoin:miter;"/>
   </g>
   <g id="patch_49">
    <path clip-path="url(#pdefb9df294)" d="M 327.721008 194.672269 
L 357.065546 194.672269 
L 357.065546 165.327731 
L 327.721008 165.327731 
z
" style="fill:#d2b48c;stroke:#d2b48c;stroke-linejoin:miter;"/>
   </g>
   <g id="patch_50">
    <path clip-path="url(#pdefb9df294)" d="M 327.721008 159.458824 
L 357.065546 159.458824 
L 357.065546 130.114286 
L 327.721008 130.114286 
z
" style="fill:#d2b48c;stroke:#d2b48c;stroke-linejoin:miter;"/>
   </g>
   <g id="patch_51">
    <path clip-path="url(#pdefb9df294)" d="M 327.721008 124.245378 
L 357.065546 124.245378 
L 357.065546 94.90084 
L 327.721008 94.90084 
z
" style="fill:#d2b48c;stroke:#d2b48c;stroke-linejoin:miter;"/>
   </g>
   <g id="patch_52">
    <path clip-path="url(#pdefb9df294)" d="M 362.934454 265.09916 
L 392.278992 265.09916 
L 392.278992 235.754622 
L 362.934454 235.754622 
z
" style="fill:#d2b48c;stroke:#d2b48c;stroke-linejoin:miter;"/>
   </g>
   <g id="patch_53">
    <path clip-path="url(#pdefb9df294)" d="M 362.934454 229.885714 
L 392.278992 229.885714 
L 392.278992 200.541176 
L 362.934454 200.541176 
z
" style="fill:#d2b48c;stroke:#d2b48c;stroke-linejoin:miter;"/>
   </g>
   <g id="patch_54">
    <path clip-path="url(#pdefb9df294)" d="M 362.934454 194.672269 
L 392.278992 194.672269 
L 392.278992 165.327731 
L 362.934454 165.327731 
z
" style="fill:#d2b48c;stroke:#d2b48c;stroke-linejoin:miter;"/>
   </g>
   <g id="patch_55">
    <path clip-path="url(#pdefb9df294)" d="M 362.934454 159.458824 
L 392.278992 159.458824 
L 392.278992 130.114286 
L 362.934454 130.114286 
z
" style="fill:#d2b48c;stroke:#d2b48c;stroke-linejoin:miter;"/>
   </g>
   <g id="patch_56">
    <path clip-path="url(#pdefb9df294)" d="M 362.934454 124.245378 
L 392.278992 124.245378 
L 392.278992 94.90084 
L 362.934454 94.90084 
z
" style="fill:#d2b48c;stroke:#d2b48c;stroke-linejoin:miter;"/>
   </g>
   <g id="patch_57">
    <path clip-path="url(#pdefb9df294)" d="M 398.147899 265.09916 
L 427.492437 265.09916 
L 427.492437 235.754622 
L 398.147899 235.754622 
z
" style="fill:#d2b48c;stroke:#d2b48c;stroke-linejoin:miter;"/>
   </g>
   <g id="patch_58">
    <path clip-path="url(#pdefb9df294)" d="M 398.147899 229.885714 
L 427.492437 229.885714 
L 427.492437 200.541176 
L 398.147899 200.541176 
z
" style="fill:#d2b48c;stroke:#d2b48c;stroke-linejoin:miter;"/>
   </g>
   <g id="patch_59">
    <path clip-path="url(#pdefb9df294)" d="M 398.147899 194.672269 
L 427.492437 194.672269 
L 427.492437 165.327731 
L 398.147899 165.327731 
z
" style="fill:#d2b48c;stroke:#d2b48c;stroke-linejoin:miter;"/>
   </g>
   <g id="patch_60">
    <path clip-path="url(#pdefb9df294)" d="M 398.147899 159.458824 
L 427.492437 159.458824 
L 427.492437 130.114286 
L 398.147899 130.114286 
z
" style="fill:#d2b48c;stroke:#d2b48c;stroke-linejoin:miter;"/>
   </g>
   <g id="patch_61">
    <path clip-path="url(#pdefb9df294)" d="M 398.147899 124.245378 
L 427.492437 124.245378 
L 427.492437 94.90084 
L 398.147899 94.90084 
z
" style="fill:#d2b48c;stroke:#d2b48c;stroke-linejoin:miter;"/>
   </g>
   <g id="patch_62">
    <path clip-path="url(#pdefb9df294)" d="M 433.361345 265.09916 
L 462.705882 265.09916 
L 462.705882 235.754622 
L 433.361345 235.754622 
z
" style="fill:#d2b48c;stroke:#d2b48c;stroke-linejoin:miter;"/>
   </g>
   <g id="patch_63">
    <path clip-path="url(#pdefb9df294)" d="M 433.361345 229.885714 
L 462.705882 229.885714 
L 462.705882 200.541176 
L 433.361345 200.541176 
z
" style="fill:#d2b48c;stroke:#d2b48c;stroke-linejoin:miter;"/>
   </g>
   <g id="patch_64">
    <path clip-path="url(#pdefb9df294)" d="M 433.361345 194.672269 
L 462.705882 194.672269 
L 462.705882 165.327731 
L 433.361345 165.327731 
z
" style="fill:#d2b48c;stroke:#d2b48c;stroke-linejoin:miter;"/>
   </g>
   <g id="patch_65">
    <path clip-path="url(#pdefb9df294)" d="M 433.361345 159.458824 
L 462.705882 159.458824 
L 462.705882 130.114286 
L 433.361345 130.114286 
z
" style="fill:#d2b48c;stroke:#d2b48c;stroke-linejoin:miter;"/>
   </g>
   <g id="patch_66">
    <path clip-path="url(#pdefb9df294)" d="M 433.361345 124.245378 
L 462.705882 124.245378 
L 462.705882 94.90084 
L 433.361345 94.90084 
z
" style="fill:#d2b48c;stroke:#d2b48c;stroke-linejoin:miter;"/>
   </g>
   <g id="patch_67">
    <path clip-path="url(#pdefb9df294)" d="M 468.57479 265.09916 
L 497.919328 265.09916 
L 497.919328 235.754622 
L 468.57479 235.754622 
z
" style="fill:#d2b48c;stroke:#d2b48c;stroke-linejoin:miter;"/>
   </g>
   <g id="patch_68">
    <path clip-path="url(#pdefb9df294)" d="M 468.57479 229.885714 
L 497.919328 229.885714 
L 497.919328 200.541176 
L 468.57479 200.541176 
z
" style="fill:#d2b48c;stroke:#d2b48c;stroke-linejoin:miter;"/>
   </g>
   <g id="patch_69">
    <path clip-path="url(#pdefb9df294)" d="M 468.57479 194.672269 
L 497.919328 194.672269 
L 497.919328 165.327731 
L 468.57479 165.327731 
z
" style="fill:#d2b48c;stroke:#d2b48c;stroke-linejoin:miter;"/>
   </g>
   <g id="patch_70">
    <path clip-path="url(#pdefb9df294)" d="M 468.57479 159.458824 
L 497.919328 159.458824 
L 497.919328 130.114286 
L 468.57479 130.114286 
z
" style="fill:#d2b48c;stroke:#d2b48c;stroke-linejoin:miter;"/>
   </g>
   <g id="patch_71">
    <path clip-path="url(#pdefb9df294)" d="M 468.57479 124.245378 
L 497.919328 124.245378 
L 497.919328 94.90084 
L 468.57479 94.90084 
z
" style="fill:#d2b48c;stroke:#d2b48c;stroke-linejoin:miter;"/>
   </g>
   <g id="patch_72">
    <path clip-path="url(#pdefb9df294)" d="M 503.788235 265.09916 
L 533.132773 265.09916 
L 533.132773 235.754622 
L 503.788235 235.754622 
z
" style="fill:#d2b48c;stroke:#d2b48c;stroke-linejoin:miter;"/>
   </g>
   <g id="patch_73">
    <path clip-path="url(#pdefb9df294)" d="M 503.788235 229.885714 
L 533.132773 229.885714 
L 533.132773 200.541176 
L 503.788235 200.541176 
z
" style="fill:#d2b48c;stroke:#d2b48c;stroke-linejoin:miter;"/>
   </g>
   <g id="patch_74">
    <path clip-path="url(#pdefb9df294)" d="M 503.788235 194.672269 
L 533.132773 194.672269 
L 533.132773 165.327731 
L 503.788235 165.327731 
z
" style="fill:#d2b48c;stroke:#d2b48c;stroke-linejoin:miter;"/>
   </g>
   <g id="patch_75">
    <path clip-path="url(#pdefb9df294)" d="M 503.788235 159.458824 
L 533.132773 159.458824 
L 533.132773 130.114286 
L 503.788235 130.114286 
z
" style="fill:#d2b48c;stroke:#d2b48c;stroke-linejoin:miter;"/>
   </g>
   <g id="patch_76">
    <path clip-path="url(#pdefb9df294)" d="M 503.788235 124.245378 
L 533.132773 124.245378 
L 533.132773 94.90084 
L 503.788235 94.90084 
z
" style="fill:#d2b48c;stroke:#d2b48c;stroke-linejoin:miter;"/>
   </g>
   <g id="patch_77">
    <path clip-path="url(#pdefb9df294)" d="M 539.001681 265.09916 
L 568.346218 265.09916 
L 568.346218 235.754622 
L 539.001681 235.754622 
z
" style="fill:#d2b48c;stroke:#d2b48c;stroke-linejoin:miter;"/>
   </g>
   <g id="patch_78">
    <path clip-path="url(#pdefb9df294)" d="M 539.001681 229.885714 
L 568.346218 229.885714 
L 568.346218 200.541176 
L 539.001681 200.541176 
z
" style="fill:#d2b48c;stroke:#d2b48c;stroke-linejoin:miter;"/>
   </g>
   <g id="patch_79">
    <path clip-path="url(#pdefb9df294)" d="M 539.001681 194.672269 
L 568.346218 194.672269 
L 568.346218 165.327731 
L 539.001681 165.327731 
z
" style="fill:#d2b48c;stroke:#d2b48c;stroke-linejoin:miter;"/>
   </g>
   <g id="patch_80">
    <path clip-path="url(#pdefb9df294)" d="M 539.001681 159.458824 
L 568.346218 159.458824 
L 568.346218 130.114286 
L 539.001681 130.114286 
z
" style="fill:#d2b48c;stroke:#d2b48c;stroke-linejoin:miter;"/>
   </g>
   <g id="patch_81">
    <path clip-path="url(#pdefb9df294)" d="M 539.001681 124.245378 
L 568.346218 124.245378 
L 568.346218 94.90084 
L 539.001681 94.90084 
z
" style="fill:#d2b48c;stroke:#d2b48c;stroke-linejoin:miter;"/>
   </g>
   <g id="patch_82">
    <path clip-path="url(#pdefb9df294)" d="M 574.215126 265.09916 
L 603.559664 265.09916 
L 603.559664 235.754622 
L 574.215126 235.754622 
z
" style="fill:#d2b48c;stroke:#d2b48c;stroke-linejoin:miter;"/>
   </g>
   <g id="patch_83">
    <path clip-path="url(#pdefb9df294)" d="M 574.215126 229.885714 
L 603.559664 229.885714 
L 603.559664 200.541176 
L 574.215126 200.541176 
z
" style="fill:#d2b48c;stroke:#d2b48c;stroke-linejoin:miter;"/>
   </g>
   <g id="patch_84">
    <path clip-path="url(#pdefb9df294)" d="M 574.215126 194.672269 
L 603.559664 194.672269 
L 603.559664 165.327731 
L 574.215126 165.327731 
z
" style="fill:#d2b48c;stroke:#d2b48c;stroke-linejoin:miter;"/>
   </g>
   <g id="patch_85">
    <path clip-path="url(#pdefb9df294)" d="M 574.215126 159.458824 
L 603.559664 159.458824 
L 603.559664 130.114286 
L 574.215126 130.114286 
z
" style="fill:#d2b48c;stroke:#d2b48c;stroke-linejoin:miter;"/>
   </g>
   <g id="patch_86">
    <path clip-path="url(#pdefb9df294)" d="M 574.215126 124.245378 
L 603.559664 124.245378 
L 603.559664 94.90084 
L 574.215126 94.90084 
z
" style="fill:#d2b48c;stroke:#d2b48c;stroke-linejoin:miter;"/>
   </g>
   <g id="patch_87">
    <path clip-path="url(#pdefb9df294)" d="M 609.428571 265.09916 
L 638.773109 265.09916 
L 638.773109 235.754622 
L 609.428571 235.754622 
z
" style="fill:#d2b48c;stroke:#d2b48c;stroke-linejoin:miter;"/>
   </g>
   <g id="patch_88">
    <path clip-path="url(#pdefb9df294)" d="M 609.428571 229.885714 
L 638.773109 229.885714 
L 638.773109 200.541176 
L 609.428571 200.541176 
z
" style="fill:#d2b48c;stroke:#d2b48c;stroke-linejoin:miter;"/>
   </g>
   <g id="patch_89">
    <path clip-path="url(#pdefb9df294)" d="M 609.428571 194.672269 
L 638.773109 194.672269 
L 638.773109 165.327731 
L 609.428571 165.327731 
z
" style="fill:#d2b48c;stroke:#d2b48c;stroke-linejoin:miter;"/>
   </g>
   <g id="patch_90">
    <path clip-path="url(#pdefb9df294)" d="M 609.428571 159.458824 
L 638.773109 159.458824 
L 638.773109 130.114286 
L 609.428571 130.114286 
z
" style="fill:#d2b48c;stroke:#d2b48c;stroke-linejoin:miter;"/>
   </g>
   <g id="patch_91">
    <path clip-path="url(#pdefb9df294)" d="M 609.428571 124.245378 
L 638.773109 124.245378 
L 638.773109 94.90084 
L 609.428571 94.90084 
z
" style="fill:#d2b48c;stroke:#d2b48c;stroke-linejoin:miter;"/>
   </g>
   <g id="patch_92">
    <path clip-path="url(#pdefb9df294)" d="M 644.642017 265.09916 
L 673.986555 265.09916 
L 673.986555 235.754622 
L 644.642017 235.754622 
z
" style="fill:#006994;stroke:#006994;stroke-linejoin:miter;"/>
   </g>
   <g id="patch_93">
    <path clip-path="url(#pdefb9df294)" d="M 644.642017 229.885714 
L 673.986555 229.885714 
L 673.986555 200.541176 
L 644.642017 200.541176 
z
" style="fill:#006994;stroke:#006994;stroke-linejoin:miter;"/>
   </g>
   <g id="patch_94">
    <path clip-path="url(#pdefb9df294)" d="M 644.642017 194.672269 
L 673.986555 194.672269 
L 673.986555 165.327731 
L 644.642017 165.327731 
z
" style="fill:#006994;stroke:#006994;stroke-linejoin:miter;"/>
   </g>
   <g id="patch_95">
    <path clip-path="url(#pdefb9df294)" d="M 644.642017 159.458824 
L 673.986555 159.458824 
L 673.986555 130.114286 
L 644.642017 130.114286 
z
" style="fill:#006994;stroke:#006994;stroke-linejoin:miter;"/>
   </g>
   <g id="patch_96">
    <path clip-path="url(#pdefb9df294)" d="M 644.642017 124.245378 
L 673.986555 124.245378 
L 673.986555 94.90084 
L 644.642017 94.90084 
z
" style="fill:#006994;stroke:#006994;stroke-linejoin:miter;"/>
   </g>
   <g id="patch_97">
    <path clip-path="url(#pdefb9df294)" d="M 679.855462 265.09916 
L 709.2 265.09916 
L 709.2 235.754622 
L 679.855462 235.754622 
z
" style="fill:#006994;stroke:#006994;stroke-linejoin:miter;"/>
   </g>
   <g id="patch_98">
    <path clip-path="url(#pdefb9df294)" d="M 679.855462 229.885714 
L 709.2 229.885714 
L 709.2 200.541176 
L 679.855462 200.541176 
z
" style="fill:#006994;stroke:#006994;stroke-linejoin:miter;"/>
   </g>
   <g id="patch_99">
    <path clip-path="url(#pdefb9df294)" d="M 679.855462 194.672269 
L 709.2 194.672269 
L 709.2 165.327731 
L 679.855462 165.327731 
z
" style="fill:#006994;stroke:#006994;stroke-linejoin:miter;"/>
   </g>
   <g id="patch_100">
    <path clip-path="url(#pdefb9df294)" d="M 679.855462 159.458824 
L 709.2 159.458824 
L 709.2 130.114286 
L 679.855462 130.114286 
z
" style="fill:#006994;stroke:#006994;stroke-linejoin:miter;"/>
   </g>
   <g id="patch_101">
    <path clip-path="url(#pdefb9df294)" d="M 679.855462 124.245378 
L 709.2 124.245378 
L 709.2 94.90084 
L 679.855462 94.90084 
z
" style="fill:#006994;stroke:#006994;stroke-linejoin:miter;"/>
   </g>
   <g id="text_1">
    <!-- Fig 1 - Land to Water ratio of Cottage Grove, MN -->
    <g style="fill:#1f1f1f;" transform="translate(215.236875 88.90084)scale(0.12 -0.12)">
     <defs>
      <path d="M 628 4666 
L 3309 4666 
L 3309 4134 
L 1259 4134 
L 1259 2759 
L 3109 2759 
L 3109 2228 
L 1259 2228 
L 1259 0 
L 628 0 
L 628 4666 
z
" id="DejaVuSans-46" transform="scale(0.015625)"/>
      <path d="M 603 3500 
L 1178 3500 
L 1178 0 
L 603 0 
L 603 3500 
z
M 603 4863 
L 1178 4863 
L 1178 4134 
L 603 4134 
L 603 4863 
z
" id="DejaVuSans-69" transform="scale(0.015625)"/>
      <path d="M 2906 1791 
Q 2906 2416 2648 2759 
Q 2391 3103 1925 3103 
Q 1463 3103 1205 2759 
Q 947 2416 947 1791 
Q 947 1169 1205 825 
Q 1463 481 1925 481 
Q 2391 481 2648 825 
Q 2906 1169 2906 1791 
z
M 3481 434 
Q 3481 -459 3084 -895 
Q 2688 -1331 1869 -1331 
Q 1566 -1331 1297 -1286 
Q 1028 -1241 775 -1147 
L 775 -588 
Q 1028 -725 1275 -790 
Q 1522 -856 1778 -856 
Q 2344 -856 2625 -561 
Q 2906 -266 2906 331 
L 2906 616 
Q 2728 306 2450 153 
Q 2172 0 1784 0 
Q 1141 0 747 490 
Q 353 981 353 1791 
Q 353 2603 747 3093 
Q 1141 3584 1784 3584 
Q 2172 3584 2450 3431 
Q 2728 3278 2906 2969 
L 2906 3500 
L 3481 3500 
L 3481 434 
z
" id="DejaVuSans-67" transform="scale(0.015625)"/>
      <path id="DejaVuSans-20" transform="scale(0.015625)"/>
      <path d="M 794 531 
L 1825 531 
L 1825 4091 
L 703 3866 
L 703 4441 
L 1819 4666 
L 2450 4666 
L 2450 531 
L 3481 531 
L 3481 0 
L 794 0 
L 794 531 
z
" id="DejaVuSans-31" transform="scale(0.015625)"/>
      <path d="M 313 2009 
L 1997 2009 
L 1997 1497 
L 313 1497 
L 313 2009 
z
" id="DejaVuSans-2d" transform="scale(0.015625)"/>
      <path d="M 628 4666 
L 1259 4666 
L 1259 531 
L 3531 531 
L 3531 0 
L 628 0 
L 628 4666 
z
" id="DejaVuSans-4c" transform="scale(0.015625)"/>
      <path d="M 2194 1759 
Q 1497 1759 1228 1600 
Q 959 1441 959 1056 
Q 959 750 1161 570 
Q 1363 391 1709 391 
Q 2188 391 2477 730 
Q 2766 1069 2766 1631 
L 2766 1759 
L 2194 1759 
z
M 3341 1997 
L 3341 0 
L 2766 0 
L 2766 531 
Q 2569 213 2275 61 
Q 1981 -91 1556 -91 
Q 1019 -91 701 211 
Q 384 513 384 1019 
Q 384 1609 779 1909 
Q 1175 2209 1959 2209 
L 2766 2209 
L 2766 2266 
Q 2766 2663 2505 2880 
Q 2244 3097 1772 3097 
Q 1472 3097 1187 3025 
Q 903 2953 641 2809 
L 641 3341 
Q 956 3463 1253 3523 
Q 1550 3584 1831 3584 
Q 2591 3584 2966 3190 
Q 3341 2797 3341 1997 
z
" id="DejaVuSans-61" transform="scale(0.015625)"/>
      <path d="M 3513 2113 
L 3513 0 
L 2938 0 
L 2938 2094 
Q 2938 2591 2744 2837 
Q 2550 3084 2163 3084 
Q 1697 3084 1428 2787 
Q 1159 2491 1159 1978 
L 1159 0 
L 581 0 
L 581 3500 
L 1159 3500 
L 1159 2956 
Q 1366 3272 1645 3428 
Q 1925 3584 2291 3584 
Q 2894 3584 3203 3211 
Q 3513 2838 3513 2113 
z
" id="DejaVuSans-6e" transform="scale(0.015625)"/>
      <path d="M 2906 2969 
L 2906 4863 
L 3481 4863 
L 3481 0 
L 2906 0 
L 2906 525 
Q 2725 213 2448 61 
Q 2172 -91 1784 -91 
Q 1150 -91 751 415 
Q 353 922 353 1747 
Q 353 2572 751 3078 
Q 1150 3584 1784 3584 
Q 2172 3584 2448 3432 
Q 2725 3281 2906 2969 
z
M 947 1747 
Q 947 1113 1208 752 
Q 1469 391 1925 391 
Q 2381 391 2643 752 
Q 2906 1113 2906 1747 
Q 2906 2381 2643 2742 
Q 2381 3103 1925 3103 
Q 1469 3103 1208 2742 
Q 947 2381 947 1747 
z
" id="DejaVuSans-64" transform="scale(0.015625)"/>
      <path d="M 1172 4494 
L 1172 3500 
L 2356 3500 
L 2356 3053 
L 1172 3053 
L 1172 1153 
Q 1172 725 1289 603 
Q 1406 481 1766 481 
L 2356 481 
L 2356 0 
L 1766 0 
Q 1100 0 847 248 
Q 594 497 594 1153 
L 594 3053 
L 172 3053 
L 172 3500 
L 594 3500 
L 594 4494 
L 1172 4494 
z
" id="DejaVuSans-74" transform="scale(0.015625)"/>
      <path d="M 1959 3097 
Q 1497 3097 1228 2736 
Q 959 2375 959 1747 
Q 959 1119 1226 758 
Q 1494 397 1959 397 
Q 2419 397 2687 759 
Q 2956 1122 2956 1747 
Q 2956 2369 2687 2733 
Q 2419 3097 1959 3097 
z
M 1959 3584 
Q 2709 3584 3137 3096 
Q 3566 2609 3566 1747 
Q 3566 888 3137 398 
Q 2709 -91 1959 -91 
Q 1206 -91 779 398 
Q 353 888 353 1747 
Q 353 2609 779 3096 
Q 1206 3584 1959 3584 
z
" id="DejaVuSans-6f" transform="scale(0.015625)"/>
      <path d="M 213 4666 
L 850 4666 
L 1831 722 
L 2809 4666 
L 3519 4666 
L 4500 722 
L 5478 4666 
L 6119 4666 
L 4947 0 
L 4153 0 
L 3169 4050 
L 2175 0 
L 1381 0 
L 213 4666 
z
" id="DejaVuSans-57" transform="scale(0.015625)"/>
      <path d="M 3597 1894 
L 3597 1613 
L 953 1613 
Q 991 1019 1311 708 
Q 1631 397 2203 397 
Q 2534 397 2845 478 
Q 3156 559 3463 722 
L 3463 178 
Q 3153 47 2828 -22 
Q 2503 -91 2169 -91 
Q 1331 -91 842 396 
Q 353 884 353 1716 
Q 353 2575 817 3079 
Q 1281 3584 2069 3584 
Q 2775 3584 3186 3129 
Q 3597 2675 3597 1894 
z
M 3022 2063 
Q 3016 2534 2758 2815 
Q 2500 3097 2075 3097 
Q 1594 3097 1305 2825 
Q 1016 2553 972 2059 
L 3022 2063 
z
" id="DejaVuSans-65" transform="scale(0.015625)"/>
      <path d="M 2631 2963 
Q 2534 3019 2420 3045 
Q 2306 3072 2169 3072 
Q 1681 3072 1420 2755 
Q 1159 2438 1159 1844 
L 1159 0 
L 581 0 
L 581 3500 
L 1159 3500 
L 1159 2956 
Q 1341 3275 1631 3429 
Q 1922 3584 2338 3584 
Q 2397 3584 2469 3576 
Q 2541 3569 2628 3553 
L 2631 2963 
z
" id="DejaVuSans-72" transform="scale(0.015625)"/>
      <path d="M 2375 4863 
L 2375 4384 
L 1825 4384 
Q 1516 4384 1395 4259 
Q 1275 4134 1275 3809 
L 1275 3500 
L 2222 3500 
L 2222 3053 
L 1275 3053 
L 1275 0 
L 697 0 
L 697 3053 
L 147 3053 
L 147 3500 
L 697 3500 
L 697 3744 
Q 697 4328 969 4595 
Q 1241 4863 1831 4863 
L 2375 4863 
z
" id="DejaVuSans-66" transform="scale(0.015625)"/>
      <path d="M 4122 4306 
L 4122 3641 
Q 3803 3938 3442 4084 
Q 3081 4231 2675 4231 
Q 1875 4231 1450 3742 
Q 1025 3253 1025 2328 
Q 1025 1406 1450 917 
Q 1875 428 2675 428 
Q 3081 428 3442 575 
Q 3803 722 4122 1019 
L 4122 359 
Q 3791 134 3420 21 
Q 3050 -91 2638 -91 
Q 1578 -91 968 557 
Q 359 1206 359 2328 
Q 359 3453 968 4101 
Q 1578 4750 2638 4750 
Q 3056 4750 3426 4639 
Q 3797 4528 4122 4306 
z
" id="DejaVuSans-43" transform="scale(0.015625)"/>
      <path d="M 3809 666 
L 3809 1919 
L 2778 1919 
L 2778 2438 
L 4434 2438 
L 4434 434 
Q 4069 175 3628 42 
Q 3188 -91 2688 -91 
Q 1594 -91 976 548 
Q 359 1188 359 2328 
Q 359 3472 976 4111 
Q 1594 4750 2688 4750 
Q 3144 4750 3555 4637 
Q 3966 4525 4313 4306 
L 4313 3634 
Q 3963 3931 3569 4081 
Q 3175 4231 2741 4231 
Q 1884 4231 1454 3753 
Q 1025 3275 1025 2328 
Q 1025 1384 1454 906 
Q 1884 428 2741 428 
Q 3075 428 3337 486 
Q 3600 544 3809 666 
z
" id="DejaVuSans-47" transform="scale(0.015625)"/>
      <path d="M 191 3500 
L 800 3500 
L 1894 563 
L 2988 3500 
L 3597 3500 
L 2284 0 
L 1503 0 
L 191 3500 
z
" id="DejaVuSans-76" transform="scale(0.015625)"/>
      <path d="M 750 794 
L 1409 794 
L 1409 256 
L 897 -744 
L 494 -744 
L 750 256 
L 750 794 
z
" id="DejaVuSans-2c" transform="scale(0.015625)"/>
      <path d="M 628 4666 
L 1569 4666 
L 2759 1491 
L 3956 4666 
L 4897 4666 
L 4897 0 
L 4281 0 
L 4281 4097 
L 3078 897 
L 2444 897 
L 1241 4097 
L 1241 0 
L 628 0 
L 628 4666 
z
" id="DejaVuSans-4d" transform="scale(0.015625)"/>
      <path d="M 628 4666 
L 1478 4666 
L 3547 763 
L 3547 4666 
L 4159 4666 
L 4159 0 
L 3309 0 
L 1241 3903 
L 1241 0 
L 628 0 
L 628 4666 
z
" id="DejaVuSans-4e" transform="scale(0.015625)"/>
     </defs>
     <use xlink:href="#DejaVuSans-46"/>
     <use x="50.269531" xlink:href="#DejaVuSans-69"/>
     <use x="78.052734" xlink:href="#DejaVuSans-67"/>
     <use x="141.529297" xlink:href="#DejaVuSans-20"/>
     <use x="173.316406" xlink:href="#DejaVuSans-31"/>
     <use x="236.939453" xlink:href="#DejaVuSans-20"/>
     <use x="268.726562" xlink:href="#DejaVuSans-2d"/>
     <use x="304.810547" xlink:href="#DejaVuSans-20"/>
     <use x="336.597656" xlink:href="#DejaVuSans-4c"/>
     <use x="392.310547" xlink:href="#DejaVuSans-61"/>
     <use x="453.589844" xlink:href="#DejaVuSans-6e"/>
     <use x="516.96875" xlink:href="#DejaVuSans-64"/>
     <use x="580.445312" xlink:href="#DejaVuSans-20"/>
     <use x="612.232422" xlink:href="#DejaVuSans-74"/>
     <use x="651.441406" xlink:href="#DejaVuSans-6f"/>
     <use x="712.623047" xlink:href="#DejaVuSans-20"/>
     <use x="744.410156" xlink:href="#DejaVuSans-57"/>
     <use x="836.912109" xlink:href="#DejaVuSans-61"/>
     <use x="898.191406" xlink:href="#DejaVuSans-74"/>
     <use x="937.400391" xlink:href="#DejaVuSans-65"/>
     <use x="998.923828" xlink:href="#DejaVuSans-72"/>
     <use x="1040.037109" xlink:href="#DejaVuSans-20"/>
     <use x="1071.824219" xlink:href="#DejaVuSans-72"/>
     <use x="1112.9375" xlink:href="#DejaVuSans-61"/>
     <use x="1174.216797" xlink:href="#DejaVuSans-74"/>
     <use x="1213.425781" xlink:href="#DejaVuSans-69"/>
     <use x="1241.208984" xlink:href="#DejaVuSans-6f"/>
     <use x="1302.390625" xlink:href="#DejaVuSans-20"/>
     <use x="1334.177734" xlink:href="#DejaVuSans-6f"/>
     <use x="1395.359375" xlink:href="#DejaVuSans-66"/>
     <use x="1430.564453" xlink:href="#DejaVuSans-20"/>
     <use x="1462.351562" xlink:href="#DejaVuSans-43"/>
     <use x="1532.175781" xlink:href="#DejaVuSans-6f"/>
     <use x="1593.357422" xlink:href="#DejaVuSans-74"/>
     <use x="1632.566406" xlink:href="#DejaVuSans-74"/>
     <use x="1671.775391" xlink:href="#DejaVuSans-61"/>
     <use x="1733.054688" xlink:href="#DejaVuSans-67"/>
     <use x="1796.53125" xlink:href="#DejaVuSans-65"/>
     <use x="1858.054688" xlink:href="#DejaVuSans-20"/>
     <use x="1889.841797" xlink:href="#DejaVuSans-47"/>
     <use x="1967.332031" xlink:href="#DejaVuSans-72"/>
     <use x="2006.195312" xlink:href="#DejaVuSans-6f"/>
     <use x="2067.376953" xlink:href="#DejaVuSans-76"/>
     <use x="2126.556641" xlink:href="#DejaVuSans-65"/>
     <use x="2188.080078" xlink:href="#DejaVuSans-2c"/>
     <use x="2219.867188" xlink:href="#DejaVuSans-20"/>
     <use x="2251.654297" xlink:href="#DejaVuSans-4d"/>
     <use x="2337.933594" xlink:href="#DejaVuSans-4e"/>
    </g>
   </g>
   <g id="legend_1">
    <g id="patch_102">
     <path d="M 17.8 294.138824 
L 237.245313 294.138824 
Q 239.245313 294.138824 239.245313 292.138824 
L 239.245313 278.460699 
Q 239.245313 276.460699 237.245313 276.460699 
L 17.8 276.460699 
Q 15.8 276.460699 15.8 278.460699 
L 15.8 292.138824 
Q 15.8 294.138824 17.8 294.138824 
z
" style="fill:none;opacity:0;"/>
    </g>
    <g id="patch_103">
     <path d="M 19.8 288.059136 
L 39.8 288.059136 
L 39.8 281.059136 
L 19.8 281.059136 
z
" style="fill:#d2b48c;stroke:#d2b48c;stroke-linejoin:miter;"/>
    </g>
    <g id="text_2">
     <!-- Land (89.7%) -->
     <g style="fill:#1f1f1f;" transform="translate(47.8 288.059136)scale(0.1 -0.1)">
      <defs>
       <path d="M 1984 4856 
Q 1566 4138 1362 3434 
Q 1159 2731 1159 2009 
Q 1159 1288 1364 580 
Q 1569 -128 1984 -844 
L 1484 -844 
Q 1016 -109 783 600 
Q 550 1309 550 2009 
Q 550 2706 781 3412 
Q 1013 4119 1484 4856 
L 1984 4856 
z
" id="DejaVuSans-28" transform="scale(0.015625)"/>
       <path d="M 2034 2216 
Q 1584 2216 1326 1975 
Q 1069 1734 1069 1313 
Q 1069 891 1326 650 
Q 1584 409 2034 409 
Q 2484 409 2743 651 
Q 3003 894 3003 1313 
Q 3003 1734 2745 1975 
Q 2488 2216 2034 2216 
z
M 1403 2484 
Q 997 2584 770 2862 
Q 544 3141 544 3541 
Q 544 4100 942 4425 
Q 1341 4750 2034 4750 
Q 2731 4750 3128 4425 
Q 3525 4100 3525 3541 
Q 3525 3141 3298 2862 
Q 3072 2584 2669 2484 
Q 3125 2378 3379 2068 
Q 3634 1759 3634 1313 
Q 3634 634 3220 271 
Q 2806 -91 2034 -91 
Q 1263 -91 848 271 
Q 434 634 434 1313 
Q 434 1759 690 2068 
Q 947 2378 1403 2484 
z
M 1172 3481 
Q 1172 3119 1398 2916 
Q 1625 2713 2034 2713 
Q 2441 2713 2670 2916 
Q 2900 3119 2900 3481 
Q 2900 3844 2670 4047 
Q 2441 4250 2034 4250 
Q 1625 4250 1398 4047 
Q 1172 3844 1172 3481 
z
" id="DejaVuSans-38" transform="scale(0.015625)"/>
       <path d="M 703 97 
L 703 672 
Q 941 559 1184 500 
Q 1428 441 1663 441 
Q 2288 441 2617 861 
Q 2947 1281 2994 2138 
Q 2813 1869 2534 1725 
Q 2256 1581 1919 1581 
Q 1219 1581 811 2004 
Q 403 2428 403 3163 
Q 403 3881 828 4315 
Q 1253 4750 1959 4750 
Q 2769 4750 3195 4129 
Q 3622 3509 3622 2328 
Q 3622 1225 3098 567 
Q 2575 -91 1691 -91 
Q 1453 -91 1209 -44 
Q 966 3 703 97 
z
M 1959 2075 
Q 2384 2075 2632 2365 
Q 2881 2656 2881 3163 
Q 2881 3666 2632 3958 
Q 2384 4250 1959 4250 
Q 1534 4250 1286 3958 
Q 1038 3666 1038 3163 
Q 1038 2656 1286 2365 
Q 1534 2075 1959 2075 
z
" id="DejaVuSans-39" transform="scale(0.015625)"/>
       <path d="M 684 794 
L 1344 794 
L 1344 0 
L 684 0 
L 684 794 
z
" id="DejaVuSans-2e" transform="scale(0.015625)"/>
       <path d="M 525 4666 
L 3525 4666 
L 3525 4397 
L 1831 0 
L 1172 0 
L 2766 4134 
L 525 4134 
L 525 4666 
z
" id="DejaVuSans-37" transform="scale(0.015625)"/>
       <path d="M 4653 2053 
Q 4381 2053 4226 1822 
Q 4072 1591 4072 1178 
Q 4072 772 4226 539 
Q 4381 306 4653 306 
Q 4919 306 5073 539 
Q 5228 772 5228 1178 
Q 5228 1588 5073 1820 
Q 4919 2053 4653 2053 
z
M 4653 2450 
Q 5147 2450 5437 2106 
Q 5728 1763 5728 1178 
Q 5728 594 5436 251 
Q 5144 -91 4653 -91 
Q 4153 -91 3862 251 
Q 3572 594 3572 1178 
Q 3572 1766 3864 2108 
Q 4156 2450 4653 2450 
z
M 1428 4353 
Q 1159 4353 1004 4120 
Q 850 3888 850 3481 
Q 850 3069 1003 2837 
Q 1156 2606 1428 2606 
Q 1700 2606 1854 2837 
Q 2009 3069 2009 3481 
Q 2009 3884 1853 4118 
Q 1697 4353 1428 4353 
z
M 4250 4750 
L 4750 4750 
L 1831 -91 
L 1331 -91 
L 4250 4750 
z
M 1428 4750 
Q 1922 4750 2215 4408 
Q 2509 4066 2509 3481 
Q 2509 2891 2217 2550 
Q 1925 2209 1428 2209 
Q 931 2209 642 2551 
Q 353 2894 353 3481 
Q 353 4063 643 4406 
Q 934 4750 1428 4750 
z
" id="DejaVuSans-25" transform="scale(0.015625)"/>
       <path d="M 513 4856 
L 1013 4856 
Q 1481 4119 1714 3412 
Q 1947 2706 1947 2009 
Q 1947 1309 1714 600 
Q 1481 -109 1013 -844 
L 513 -844 
Q 928 -128 1133 580 
Q 1338 1288 1338 2009 
Q 1338 2731 1133 3434 
Q 928 4138 513 4856 
z
" id="DejaVuSans-29" transform="scale(0.015625)"/>
      </defs>
      <use xlink:href="#DejaVuSans-4c"/>
      <use x="55.712891" xlink:href="#DejaVuSans-61"/>
      <use x="116.992188" xlink:href="#DejaVuSans-6e"/>
      <use x="180.371094" xlink:href="#DejaVuSans-64"/>
      <use x="243.847656" xlink:href="#DejaVuSans-20"/>
      <use x="275.634766" xlink:href="#DejaVuSans-28"/>
      <use x="314.648438" xlink:href="#DejaVuSans-38"/>
      <use x="378.271484" xlink:href="#DejaVuSans-39"/>
      <use x="441.894531" xlink:href="#DejaVuSans-2e"/>
      <use x="473.681641" xlink:href="#DejaVuSans-37"/>
      <use x="537.304688" xlink:href="#DejaVuSans-25"/>
      <use x="632.324219" xlink:href="#DejaVuSans-29"/>
     </g>
    </g>
    <g id="patch_104">
     <path d="M 134.934375 288.059136 
L 154.934375 288.059136 
L 154.934375 281.059136 
L 134.934375 281.059136 
z
" style="fill:#006994;stroke:#006994;stroke-linejoin:miter;"/>
    </g>
    <g id="text_3">
     <!-- Water (10.3%) -->
     <g style="fill:#1f1f1f;" transform="translate(162.934375 288.059136)scale(0.1 -0.1)">
      <defs>
       <path d="M 2034 4250 
Q 1547 4250 1301 3770 
Q 1056 3291 1056 2328 
Q 1056 1369 1301 889 
Q 1547 409 2034 409 
Q 2525 409 2770 889 
Q 3016 1369 3016 2328 
Q 3016 3291 2770 3770 
Q 2525 4250 2034 4250 
z
M 2034 4750 
Q 2819 4750 3233 4129 
Q 3647 3509 3647 2328 
Q 3647 1150 3233 529 
Q 2819 -91 2034 -91 
Q 1250 -91 836 529 
Q 422 1150 422 2328 
Q 422 3509 836 4129 
Q 1250 4750 2034 4750 
z
" id="DejaVuSans-30" transform="scale(0.015625)"/>
       <path d="M 2597 2516 
Q 3050 2419 3304 2112 
Q 3559 1806 3559 1356 
Q 3559 666 3084 287 
Q 2609 -91 1734 -91 
Q 1441 -91 1130 -33 
Q 819 25 488 141 
L 488 750 
Q 750 597 1062 519 
Q 1375 441 1716 441 
Q 2309 441 2620 675 
Q 2931 909 2931 1356 
Q 2931 1769 2642 2001 
Q 2353 2234 1838 2234 
L 1294 2234 
L 1294 2753 
L 1863 2753 
Q 2328 2753 2575 2939 
Q 2822 3125 2822 3475 
Q 2822 3834 2567 4026 
Q 2313 4219 1838 4219 
Q 1578 4219 1281 4162 
Q 984 4106 628 3988 
L 628 4550 
Q 988 4650 1302 4700 
Q 1616 4750 1894 4750 
Q 2613 4750 3031 4423 
Q 3450 4097 3450 3541 
Q 3450 3153 3228 2886 
Q 3006 2619 2597 2516 
z
" id="DejaVuSans-33" transform="scale(0.015625)"/>
      </defs>
      <use xlink:href="#DejaVuSans-57"/>
      <use x="92.501953" xlink:href="#DejaVuSans-61"/>
      <use x="153.78125" xlink:href="#DejaVuSans-74"/>
      <use x="192.990234" xlink:href="#DejaVuSans-65"/>
      <use x="254.513672" xlink:href="#DejaVuSans-72"/>
      <use x="295.626953" xlink:href="#DejaVuSans-20"/>
      <use x="327.414062" xlink:href="#DejaVuSans-28"/>
      <use x="366.427734" xlink:href="#DejaVuSans-31"/>
      <use x="430.050781" xlink:href="#DejaVuSans-30"/>
      <use x="493.673828" xlink:href="#DejaVuSans-2e"/>
      <use x="525.460938" xlink:href="#DejaVuSans-33"/>
      <use x="589.083984" xlink:href="#DejaVuSans-25"/>
      <use x="684.103516" xlink:href="#DejaVuSans-29"/>
     </g>
    </g>
   </g>
  </g>
 </g>
 <defs>
  <clipPath id="pdefb9df294">
   <rect height="170.198319" width="698.4" x="10.8" y="94.90084"/>
  </clipPath>
 </defs>
</svg>
