<svg xmlns="http://www.w3.org/2000/svg" xmlns:xlink="http://www.w3.org/1999/xlink" version="1.1" class="marks" width="585" height="402" viewBox="0 0 585 402"><rect width="585" height="402" fill="white"/><g fill="none" stroke-miterlimit="10" transform="translate(91,5)"><g class="mark-group role-frame root" role="graphics-object" aria-roledescription="group mark container"><g transform="translate(0,0)"><path class="background" aria-hidden="true" d="M0.5,0.5h400v360h-400Z" stroke="#ddd"/><g><g class="mark-group role-axis" role="graphics-symbol" aria-roledescription="axis" aria-label="X-axis for a linear scale with values from −2,000 to 2,000"><g transform="translate(0.5,360.5)"><path class="background" aria-hidden="true" d="M0,0h0v0h0Z" pointer-events="none"/><g><g class="mark-rule role-axis-grid" pointer-events="none"><line transform="translate(0,0)" x2="0" y2="-360" stroke="#ddd" stroke-width="1" opacity="1"/><line transform="translate(50,0)" x2="0" y2="-360" stroke="#ddd" stroke-width="1" opacity="1"/><line transform="translate(100,0)" x2="0" y2="-360" stroke="#ddd" stroke-width="1" opacity="1"/><line transform="translate(150,0)" x2="0" y2="-360" stroke="#ddd" stroke-width="1" opacity="1"/><line transform="translate(200,0)" x2="0" y2="-360" stroke="#ddd" stroke-width="1" opacity="1"/><line transform="translate(250,0)" x2="0" y2="-360" stroke="#ddd" stroke-width="1" opacity="1"/><line transform="translate(300,0)" x2="0" y2="-360" stroke="#ddd" stroke-width="1" opacity="1"/><line transform="translate(350,0)" x2="0" y2="-360" stroke="#ddd" stroke-width="1" opacity="1"/><line transform="translate(400,0)" x2="0" y2="-360" stroke="#ddd" stroke-width="1" opacity="1"/></g></g><path class="foreground" aria-hidden="true" d="" pointer-events="none" display="none"/></g></g><g class="mark-group role-axis" role="graphics-symbol" aria-roledescription="axis" aria-label="X-axis titled 'Population' for a linear scale with values from −2,000 to 2,000"><g transform="translate(0.5,360.5)"><path class="background" aria-hidden="true" d="M0,0h0v0h0Z" pointer-events="none"/><g><g class="mark-rule role-axis-tick" pointer-events="none"><line transform="translate(0,0)" x2="0" y2="5" stroke="#888" stroke-width="1" opacity="1"/><line transform="translate(50,0)" x2="0" y2="5" stroke="#888" stroke-width="1" opacity="1"/><line transform="translate(100,0)" x2="0" y2="5" stroke="#888" stroke-width="1" opacity="1"/><line transform="translate(150,0)" x2="0" y2="5" stroke="#888" stroke-width="1" opacity="1"/><line transform="translate(200,0)" x2="0" y2="5" stroke="#888" stroke-width="1" opacity="1"/><line transform="translate(250,0)" x2="0" y2="5" stroke="#888" stroke-width="1" opacity="1"/><line transform="translate(300,0)" x2="0" y2="5" stroke="#888" stroke-width="1" opacity="1"/><line transform="translate(350,0)" x2="0" y2="5" stroke="#888" stroke-width="1" opacity="1"/><line transform="translate(400,0)" x2="0" y2="5" stroke="#888" stroke-width="1" opacity="1"/></g><g class="mark-text role-axis-label" pointer-events="none"><text text-anchor="start" transform="translate(0,15)" font-family="sans-serif" font-size="10px" fill="#000" opacity="1">−2,000</text><text text-anchor="middle" transform="translate(50,15)" font-family="sans-serif" font-size="10px" fill="#000" opacity="1">−1,500</text><text text-anchor="middle" transform="translate(100,15)" font-family="sans-serif" font-size="10px" fill="#000" opacity="1">−1,000</text><text text-anchor="middle" transform="translate(150,15)" font-family="sans-serif" font-size="10px" fill="#000" opacity="1">−500</text><text text-anchor="middle" transform="translate(200,15)" font-family="sans-serif" font-size="10px" fill="#000" opacity="1">0</text><text text-anchor="middle" transform="translate(250,15)" font-family="sans-serif" font-size="10px" fill="#000" opacity="1">500</text><text text-anchor="middle" transform="translate(300,15)" font-family="sans-serif" font-size="10px" fill="#000" opacity="1">1,000</text><text text-anchor="middle" transform="translate(350,15)" font-family="sans-serif" font-size="10px" fill="#000" opacity="1">1,500</text><text text-anchor="end" transform="translate(400,15)" font-family="sans-serif" font-size="10px" fill="#000" opacity="1">2,000</text></g><g class="mark-rule role-axis-domain" pointer-events="none"><line transform="translate(0,0)" x2="400" y2="0" stroke="#888" stroke-width="1" opacity="1"/></g><g class="mark-text role-axis-title" pointer-events="none"><text text-anchor="middle" transform="translate(200,30)" font-family="sans-serif" font-size="11px" font-weight="bold" fill="#000" opacity="1">Population</text></g></g><path class="foreground" aria-hidden="true" d="" pointer-events="none" display="none"/></g></g><g class="mark-group role-axis" role="graphics-symbol" aria-roledescription="axis" aria-label="Y-axis titled 'Age Range' for a discrete scale with 18 values: Under 5, 5 to 9 years, 10 to 14 years, 15 to 19 years, 20 to 24 years, ending with 85 and over"><g transform="translate(-4.5,0.5)"><path class="background" aria-hidden="true" d="M0,0h0v0h0Z" pointer-events="none"/><g><g class="mark-text role-axis-label" pointer-events="none"><text text-anchor="end" transform="translate(-2,12.5)" font-family="sans-serif" font-size="10px" fill="#000" opacity="1">Under 5</text><text text-anchor="end" transform="translate(-2,32.5)" font-family="sans-serif" font-size="10px" fill="#000" opacity="1">5 to 9 years</text><text text-anchor="end" transform="translate(-2,52.5)" font-family="sans-serif" font-size="10px" fill="#000" opacity="1">10 to 14 years</text><text text-anchor="end" transform="translate(-2,72.5)" font-family="sans-serif" font-size="10px" fill="#000" opacity="1">15 to 19 years</text><text text-anchor="end" transform="translate(-2,92.5)" font-family="sans-serif" font-size="10px" fill="#000" opacity="1">20 to 24 years</text><text text-anchor="end" transform="translate(-2,112.5)" font-family="sans-serif" font-size="10px" fill="#000" opacity="1">25 to 29 years</text><text text-anchor="end" transform="translate(-2,132.5)" font-family="sans-serif" font-size="10px" fill="#000" opacity="1">30 to 34 years</text><text text-anchor="end" transform="translate(-2,152.5)" font-family="sans-serif" font-size="10px" fill="#000" opacity="1">35 to 39 years</text><text text-anchor="end" transform="translate(-2,172.5)" font-family="sans-serif" font-size="10px" fill="#000" opacity="1">40 to 44 years</text><text text-anchor="end" transform="translate(-2,192.5)" font-family="sans-serif" font-size="10px" fill="#000" opacity="1">45 to 49 years</text><text text-anchor="end" transform="translate(-2,212.5)" font-family="sans-serif" font-size="10px" fill="#000" opacity="1">50 to 54 years</text><text text-anchor="end" transform="translate(-2,232.5)" font-family="sans-serif" font-size="10px" fill="#000" opacity="1">55 to 59 years</text><text text-anchor="end" transform="translate(-2,252.5)" font-family="sans-serif" font-size="10px" fill="#000" opacity="1">60 to 64 years</text><text text-anchor="end" transform="translate(-2,272.5)" font-family="sans-serif" font-size="10px" fill="#000" opacity="1">65 to 69 years</text><text text-anchor="end" transform="translate(-2,292.5)" font-family="sans-serif" font-size="10px" fill="#000" opacity="1">70 to 74 years</text><text text-anchor="end" transform="translate(-2,312.5)" font-family="sans-serif" font-size="10px" fill="#000" opacity="1">75 to 79 years</text><text text-anchor="end" transform="translate(-2,332.5)" font-family="sans-serif" font-size="10px" fill="#000" opacity="1">80 to 84 years</text><text text-anchor="end" transform="translate(-2,352.5)" font-family="sans-serif" font-size="10px" fill="#000" opacity="1">85 and over</text></g><g class="mark-text role-axis-title" pointer-events="none"><text text-anchor="middle" transform="translate(-69.3740234375,180) rotate(-90) translate(0,-2)" font-family="sans-serif" font-size="11px" font-weight="bold" fill="#000" opacity="1">Age Range</text></g></g><path class="foreground" aria-hidden="true" d="" pointer-events="none" display="none"/></g></g><g class="mark-rect role-mark marks" role="graphics-symbol" aria-roledescription="rect mark container"><path d="M200,1h115.09999999999997v18h-115.09999999999997Z" fill="#0A2F51"/><path d="M200,21h160.59999999999997v18h-160.59999999999997Z" fill="#0A2F51"/><path d="M200,41h153v18h-153Z" fill="#0A2F51"/><path d="M200,61h138.3v18h-138.3Z" fill="#0A2F51"/><path d="M200,81h99.90000000000003v18h-99.90000000000003Z" fill="#0A2F51"/><path d="M200,101h105.69999999999999v18h-105.69999999999999Z" fill="#0A2F51"/><path d="M200,121h91.59999999999997v18h-91.59999999999997Z" fill="#0A2F51"/><path d="M200,141h188.5v18h-188.5Z" fill="#0A2F51"/><path d="M200,161h156v18h-156Z" fill="#0A2F51"/><path d="M200,181h132.7v18h-132.7Z" fill="#0A2F51"/><path d="M200,201h98v18h-98Z" fill="#0A2F51"/><path d="M200,221h105.10000000000002v18h-105.10000000000002Z" fill="#0A2F51"/><path d="M200,241h84.30000000000001v18h-84.30000000000001Z" fill="#0A2F51"/><path d="M200,261h82.69999999999999v18h-82.69999999999999Z" fill="#0A2F51"/><path d="M200,281h48.80000000000001v18h-48.80000000000001Z" fill="#0A2F51"/><path d="M200,301h39.5v18h-39.5Z" fill="#0A2F51"/><path d="M200,321h34.10000000000002v18h-34.10000000000002Z" fill="#0A2F51"/><path d="M200,341h29.80000000000001v18h-29.80000000000001Z" fill="#0A2F51"/><path d="M78.4,1h121.6v18h-121.6Z" fill="#ECCCD8"/><path d="M76,21h124v18h-124Z" fill="#ECCCD8"/><path d="M28.599999999999998,41h171.4v18h-171.4Z" fill="#ECCCD8"/><path d="M62.6,61h137.4v18h-137.4Z" fill="#ECCCD8"/><path d="M118,81h82v18h-82Z" fill="#ECCCD8"/><path d="M97.39999999999999,101h102.60000000000001v18h-102.60000000000001Z" fill="#ECCCD8"/><path d="M72.1,121h127.9v18h-127.9Z" fill="#ECCCD8"/><path d="M39.900000000000006,141h160.1v18h-160.1Z" fill="#ECCCD8"/><path d="M62.9,161h137.1v18h-137.1Z" fill="#ECCCD8"/><path d="M73.7,181h126.3v18h-126.3Z" fill="#ECCCD8"/><path d="M73.7,201h126.3v18h-126.3Z" fill="#ECCCD8"/><path d="M75.6,221h124.4v18h-124.4Z" fill="#ECCCD8"/><path d="M112.4,241h87.6v18h-87.6Z" fill="#ECCCD8"/><path d="M122.50000000000001,261h77.49999999999999v18h-77.49999999999999Z" fill="#ECCCD8"/><path d="M152.2,281h47.80000000000001v18h-47.80000000000001Z" fill="#ECCCD8"/><path d="M150.8,301h49.19999999999999v18h-49.19999999999999Z" fill="#ECCCD8"/><path d="M175.5,321h24.5v18h-24.5Z" fill="#ECCCD8"/><path d="M179.4,341h20.599999999999994v18h-20.599999999999994Z" fill="#ECCCD8"/></g><g class="mark-group role-legend" role="graphics-symbol" aria-roledescription="legend" aria-label="Symbol legend titled 'Indicated Sex' for fill color with 2 values: Male, Female"><g transform="translate(418,0)"><path class="background" aria-hidden="true" d="M0,0h71v40h-71Z" pointer-events="none"/><g><g class="mark-group role-legend-entry"><g transform="translate(0,16)"><path class="background" aria-hidden="true" d="M0,0h0v0h0Z" pointer-events="none"/><g><g class="mark-group role-scope" role="graphics-object" aria-roledescription="group mark container"><g transform="translate(0,0)"><path class="background" aria-hidden="true" d="M0,0h49.3447265625v11h-49.3447265625Z" pointer-events="none" opacity="1"/><g><g class="mark-symbol role-legend-symbol" pointer-events="none"><path transform="translate(6,6)" d="M-5,-5h10v10h-10Z" fill="#0A2F51" stroke-width="1.5" opacity="1"/></g><g class="mark-text role-legend-label" pointer-events="none"><text text-anchor="start" transform="translate(16,9)" font-family="sans-serif" font-size="10px" fill="#000" opacity="1">Male</text></g></g><path class="foreground" aria-hidden="true" d="" pointer-events="none" display="none"/></g><g transform="translate(0,13)"><path class="background" aria-hidden="true" d="M0,0h49.3447265625v11h-49.3447265625Z" pointer-events="none" opacity="1"/><g><g class="mark-symbol role-legend-symbol" pointer-events="none"><path transform="translate(6,6)" d="M-5,-5h10v10h-10Z" fill="#ECCCD8" stroke-width="1.5" opacity="1"/></g><g class="mark-text role-legend-label" pointer-events="none"><text text-anchor="start" transform="translate(16,9)" font-family="sans-serif" font-size="10px" fill="#000" opacity="1">Female</text></g></g><path class="foreground" aria-hidden="true" d="" pointer-events="none" display="none"/></g></g></g><path class="foreground" aria-hidden="true" d="" pointer-events="none" display="none"/></g></g><g class="mark-text role-legend-title" pointer-events="none"><text text-anchor="start" transform="translate(0,9)" font-family="sans-serif" font-size="11px" font-weight="bold" fill="#000" opacity="1">Indicated Sex</text></g></g><path class="foreground" aria-hidden="true" d="" pointer-events="none" display="none"/></g></g></g><path class="foreground" aria-hidden="true" d="" display="none"/></g></g></g></svg>